<?xml version="1.0" standalone="no"?>
<!DOCTYPE svg PUBLIC "-//W3C//DTD SVG 20010904//EN"
 "http://www.w3.org/TR/2001/REC-SVG-20010904/DTD/svg10.dtd">
<svg version="1.0" xmlns="http://www.w3.org/2000/svg"
 width="500.000000pt" height="500.000000pt" viewBox="0 0 500.000000 500.000000"
 preserveAspectRatio="xMidYMid meet">
<metadata>
Created by potrace 1.11, written by Peter Selinger 2001-2013
</metadata>
<g transform="translate(0.000000,500.000000) scale(0.100000,-0.100000)"
fill="#000000" stroke="none">
<path d="M3303 3828 c-2 -5 -4 -48 -4 -98 0 -49 -4 -90 -9 -90 -5 0 -7 6 -4
14 3 8 0 17 -7 22 -8 4 -10 3 -5 -5 4 -6 2 -19 -5 -27 -7 -8 -8 -14 -3 -13 29
5 33 -3 32 -53 -2 -37 -7 -55 -18 -60 -12 -5 -12 -7 3 -7 16 -1 18 -10 15 -73
-2 -54 -6 -72 -16 -70 -8 1 -11 -2 -7 -8 3 -6 10 -8 14 -5 13 7 10 -49 -3 -57
-8 -6 -8 -8 0 -8 7 0 12 -25 13 -65 1 -37 -3 -65 -9 -65 -5 0 -7 6 -4 14 3 8
0 17 -7 22 -8 4 -10 3 -5 -5 4 -6 2 -19 -5 -27 -7 -8 -8 -14 -3 -13 29 5 33
-3 32 -53 -2 -37 -7 -55 -18 -60 -12 -5 -12 -7 3 -7 16 -1 18 -9 16 -68 -1
-38 -7 -74 -13 -82 -9 -12 -8 -13 2 -7 11 6 12 1 9 -23 -4 -22 -1 -31 9 -31 8
0 11 -7 8 -17 -5 -17 -5 -17 5 -1 9 14 22 16 63 12 29 -3 55 -7 60 -10 4 -3 8
-1 8 4 0 5 12 9 28 9 54 0 63 3 60 21 -1 9 1 23 6 31 5 8 5 12 0 9 -11 -7 -12
62 -1 80 5 7 4 12 -2 12 -6 0 -11 5 -11 11 0 5 4 8 8 5 5 -3 7 5 6 17 -1 12
-3 22 -4 22 -2 0 -3 12 -4 27 -1 15 2 24 6 22 4 -3 8 0 8 5 0 6 -4 11 -10 11
-5 0 -10 5 -10 11 0 5 6 7 13 3 7 -5 6 0 -3 11 -9 11 -10 16 -2 11 15 -9 16 6
1 21 -14 14 24 59 40 48 6 -3 11 -4 11 -1 0 3 -10 10 -21 17 -12 6 -19 7 -15
1 3 -5 -1 -15 -9 -22 -13 -11 -14 -10 -9 5 4 9 8 31 9 49 2 17 3 33 4 35 0 2
10 -4 21 -14 11 -10 20 -13 20 -7 0 7 -4 12 -9 12 -15 0 -20 38 -5 44 8 3 13
10 12 16 -3 13 69 55 94 55 19 0 23 -8 15 -28 -4 -9 -6 -9 -6 1 -1 6 -6 12
-12 12 -5 0 -8 -4 -5 -9 3 -5 -7 -7 -23 -6 -31 3 -36 -14 -12 -38 10 -9 15 -8
27 7 15 22 41 29 50 15 3 -5 0 -9 -6 -9 -7 0 -6 -5 2 -14 8 -8 15 -10 19 -4 4
7 9 6 13 -1 4 -6 13 -11 19 -11 7 0 6 4 -3 10 -12 7 -11 9 6 8 18 -2 21 -8 20
-49 -1 -26 2 -45 7 -42 4 2 7 -1 7 -6 0 -6 -4 -11 -9 -11 -5 0 -12 -7 -15 -16
-5 -13 -3 -14 6 -6 10 8 13 3 14 -24 1 -22 -2 -31 -10 -27 -7 4 -7 1 1 -8 15
-18 13 -60 -2 -51 -6 3 -5 0 1 -9 13 -15 12 -98 -1 -119 -5 -8 -4 -11 2 -7 12
7 11 -43 -1 -62 -6 -10 -6 -12 2 -7 7 4 12 2 12 -3 0 -6 -6 -11 -12 -11 -9 0
-8 -4 2 -10 8 -5 11 -10 6 -10 -5 0 -2 -8 7 -18 10 -10 14 -22 10 -27 -5 -4
-2 -5 5 -1 7 4 10 11 7 16 -3 4 21 7 52 6 44 -2 57 -6 59 -19 1 -10 -4 -17
-13 -17 -12 0 -13 3 -4 14 10 12 9 14 -6 11 -10 -1 -17 -8 -16 -14 2 -6 -2
-11 -8 -11 -6 0 -9 6 -6 13 3 8 -1 14 -8 14 -10 0 -11 -5 -5 -17 5 -10 6 -21
2 -25 -4 -4 2 -3 13 2 11 6 26 8 33 6 17 -6 42 15 36 31 -3 8 5 13 23 13 55 1
64 3 57 14 -3 6 0 15 7 20 11 7 11 9 1 9 -7 0 -10 5 -7 10 4 6 11 8 16 5 5 -4
9 -1 9 4 0 6 -8 11 -17 11 -15 0 -16 2 -3 10 8 5 10 10 5 10 -6 0 -11 11 -11
25 0 19 4 24 16 20 13 -4 13 -4 0 7 -8 7 -15 28 -16 46 0 26 3 32 15 27 14 -4
14 -4 1 7 -18 15 -25 48 -10 48 5 0 10 5 10 11 0 5 -4 8 -8 5 -5 -3 -9 1 -9 9
0 8 4 12 8 10 4 -3 9 2 12 10 4 10 1 12 -11 8 -15 -6 -15 -5 -3 10 7 9 9 17 4
17 -4 0 -8 47 -8 104 0 57 -3 102 -7 99 -5 -2 -8 3 -8 13 0 34 -52 111 -93
137 -22 15 -47 27 -54 27 -7 0 -13 3 -13 8 0 12 -130 7 -179 -7 -24 -7 -52
-21 -64 -31 -11 -11 -24 -17 -28 -14 -4 2 -13 -4 -18 -15 -15 -27 -40 -35 -34
-10 3 10 10 16 17 13 6 -3 2 2 -9 12 -20 16 -20 16 3 11 12 -3 20 -1 16 4 -3
5 -12 9 -19 9 -9 0 -12 6 -8 15 5 14 8 14 26 -2 19 -18 20 -18 6 5 -8 12 -18
22 -24 22 -11 0 -12 170 -1 188 3 6 2 13 -4 17 -6 3 -8 17 -6 31 4 19 0 24
-17 24 -12 1 -64 2 -115 3 -52 1 -96 -1 -99 -5z m437 -463 c4 2 15 -4 25 -15
14 -16 15 -20 4 -21 -8 0 -22 -2 -32 -4 -9 -2 -15 1 -12 5 3 5 1 11 -4 15 -6
3 -7 13 -4 22 4 11 8 13 11 5 2 -7 7 -10 12 -7z m-77 -32 c-6 -15 -19 -17 -27
-4 -7 11 0 18 18 18 8 0 12 -6 9 -14z"/>
<path d="M3731 3344 c6 -7 16 -11 21 -8 11 7 3 17 -18 20 -12 2 -13 -1 -3 -12z"/>
<path d="M935 3790 l-340 -5 0 -96 0 -97 34 4 c18 1 44 -2 58 -7 21 -8 23 -12
13 -24 -7 -9 -10 -18 -6 -22 3 -3 6 -1 6 6 0 7 5 9 12 5 7 -4 8 -3 4 4 -4 7
-3 12 3 12 5 0 11 -6 14 -12 3 -7 4 -3 4 8 -1 14 -6 20 -14 17 -7 -3 -13 -1
-13 4 0 5 33 9 74 8 61 0 73 -3 68 -15 -4 -12 -1 -12 14 2 31 27 48 8 49 -57
1 -32 -4 -55 -10 -55 -7 0 -7 -3 1 -8 14 -10 15 -82 1 -82 -9 0 -9 -2 -1 -8
15 -9 14 -144 0 -154 -8 -6 -8 -8 0 -8 6 0 11 -29 12 -75 0 -52 -3 -73 -10
-69 -7 5 -8 2 -2 -7 5 -8 9 -42 10 -76 1 -60 0 -61 -25 -56 -14 2 -23 1 -19
-2 3 -4 14 -8 25 -9 14 -2 18 -12 19 -42 0 -21 -3 -44 -7 -49 -5 -7 35 -10
114 -9 74 0 128 -3 136 -10 11 -8 13 -8 7 2 -4 6 -3 12 3 12 5 0 8 12 5 26 -3
14 -1 23 4 20 5 -3 9 1 9 9 0 8 -4 12 -9 9 -4 -3 -8 2 -8 11 0 9 4 14 8 11 4
-2 8 4 8 14 0 10 -4 16 -8 14 -4 -3 -8 0 -8 5 0 6 6 11 13 11 7 0 8 3 2 8 -5
4 -12 23 -13 41 -3 30 -2 33 11 22 12 -9 17 -9 23 0 4 7 3 9 -4 5 -18 -11 -27
16 -28 87 0 57 2 67 15 62 10 -3 9 0 -3 10 -14 11 -16 15 -5 15 8 0 10 3 4 8
-14 10 -15 85 -1 94 8 6 8 8 -1 8 -8 0 -12 19 -11 61 2 53 3 59 15 43 7 -10
13 -13 13 -8 0 6 -5 15 -12 22 -6 6 -12 21 -13 32 -1 11 1 18 3 15 6 -6 31 26
31 40 0 6 -4 2 -10 -7 -17 -29 -26 -20 -25 25 1 47 18 66 43 45 14 -11 16 -11
11 2 -8 22 138 21 169 -1 13 -9 21 -18 18 -21 -3 -2 1 -5 9 -5 11 0 12 4 3 18
-6 10 -15 15 -19 13 -4 -3 -8 -1 -8 4 0 5 14 9 30 10 17 0 30 -5 30 -11 0 -8
3 -7 9 2 5 7 13 11 18 8 7 -5 10 136 4 185 -2 11 -188 13 -556 8z"/>
<path d="M3246 3702 c-3 -5 1 -9 9 -9 8 0 12 4 9 9 -3 4 -7 8 -9 8 -2 0 -6 -4
-9 -8z"/>
<path d="M3556 3678 c3 -5 10 -6 15 -3 13 9 11 12 -6 12 -8 0 -12 -4 -9 -9z"/>
<path d="M545 3660 c-3 -6 1 -7 9 -4 18 7 21 14 7 14 -6 0 -13 -4 -16 -10z"/>
<path d="M575 3620 c3 -5 8 -10 11 -10 2 0 4 5 4 10 0 6 -5 10 -11 10 -5 0 -7
-4 -4 -10z"/>
<path d="M3550 3610 c-9 -6 -10 -10 -3 -10 6 0 15 5 18 10 8 12 4 12 -15 0z"/>
<path d="M3230 3599 c0 -5 5 -7 10 -4 6 3 10 8 10 11 0 2 -4 4 -10 4 -5 0 -10
-5 -10 -11z"/>
<path d="M654 3578 c-4 -6 -3 -8 4 -4 5 3 12 1 14 -6 3 -8 6 -9 11 -1 4 6 0
13 -8 17 -8 3 -17 0 -21 -6z"/>
<path d="M753 3563 c0 -17 2 -21 8 -12 4 7 5 17 2 23 -4 5 -1 6 6 2 7 -5 10
-14 7 -22 -3 -8 -1 -14 4 -14 6 0 10 7 10 15 0 18 20 16 35 -3 11 -14 45 -7
45 9 0 5 5 9 10 9 16 0 7 -24 -14 -36 -11 -7 -25 -10 -32 -7 -7 2 -14 0 -17
-4 -8 -13 46 -10 56 2 6 6 10 6 14 -2 9 -24 19 -13 19 22 0 38 -18 52 -37 29
-9 -11 -15 -12 -26 -2 -8 7 -32 13 -53 14 -34 1 -37 -1 -37 -23z m87 2 c7 -9
8 -15 2 -15 -5 0 -12 7 -16 15 -3 8 -4 15 -2 15 2 0 9 -7 16 -15z"/>
<path d="M1267 3577 c3 -5 -3 -7 -12 -5 -10 2 -20 -2 -22 -8 -2 -7 7 -11 21
-11 14 0 23 3 21 7 -3 4 2 11 11 14 24 9 31 7 14 -4 -13 -9 -13 -12 2 -20 10
-6 15 -18 12 -28 -5 -14 -4 -15 5 -2 6 9 7 18 1 24 -15 15 -12 26 6 26 8 0 13
-4 10 -9 -3 -5 1 -11 9 -15 8 -3 17 0 21 6 4 6 3 8 -3 5 -6 -4 -13 0 -16 8 -5
11 -1 12 18 5 18 -7 23 -6 19 3 -3 8 -26 12 -63 12 -33 0 -57 -3 -54 -8z"/>
<path d="M1435 3580 c3 -5 8 -10 11 -10 2 0 4 5 4 10 0 6 -5 10 -11 10 -5 0
-7 -4 -4 -10z"/>
<path d="M1190 3572 c0 -6 -3 -18 -7 -28 -5 -13 -3 -16 10 -11 10 4 20 0 26
-11 10 -16 10 -16 11 1 0 9 -4 17 -9 17 -5 0 -8 7 -7 16 0 9 -5 19 -11 21 -7
3 -13 0 -13 -5z m11 -25 c-10 -9 -11 -8 -5 6 3 10 9 15 12 12 3 -3 0 -11 -7
-18z"/>
<path d="M3274 3560 c0 -13 4 -16 10 -10 7 7 7 13 0 20 -6 6 -10 3 -10 -10z"/>
<path d="M1858 3559 c-7 -5 -23 -9 -34 -9 -12 0 -47 -13 -77 -29 -31 -16 -58
-27 -61 -25 -3 2 -4 1 -2 -2 7 -9 -17 -33 -26 -27 -5 2 -8 -3 -8 -12 0 -8 -7
-18 -15 -21 -8 -3 -17 -14 -20 -25 -4 -11 -11 -16 -17 -13 -6 4 -8 2 -4 -4 8
-13 -14 -63 -25 -57 -4 3 -5 -4 -2 -15 3 -11 1 -26 -4 -33 -5 -6 -9 -31 -8
-54 1 -33 -2 -43 -14 -44 -12 0 -10 -3 4 -9 11 -5 14 -9 8 -9 -7 -1 -13 -6
-13 -12 0 -5 4 -8 9 -5 4 3 7 -15 6 -39 -1 -25 2 -45 7 -45 4 0 8 -9 8 -19 0
-11 5 -23 10 -26 6 -3 10 -12 10 -18 0 -7 -4 -6 -10 3 -7 12 -9 10 -7 -7 0
-12 4 -20 8 -17 4 2 19 -12 34 -31 14 -20 20 -34 13 -33 -7 2 -18 10 -25 18
-6 8 -15 12 -19 7 -4 -4 -2 -7 5 -7 7 0 9 -4 6 -10 -3 -5 -1 -11 4 -11 16 -2
23 -4 49 -13 18 -6 20 -11 12 -21 -8 -9 -7 -17 4 -28 8 -8 12 -18 8 -23 -4 -5
1 -2 10 5 15 11 19 11 24 -2 3 -9 14 -19 25 -22 11 -4 17 -10 14 -15 -3 -4 2
-7 10 -6 21 3 20 19 -2 22 -10 2 -28 14 -40 28 -12 14 -23 21 -25 15 -2 -7 -9
-5 -17 5 -12 14 -11 16 10 13 12 -2 25 -9 27 -15 2 -7 10 -12 17 -12 7 0 15
-5 17 -10 2 -6 13 -12 26 -13 12 0 22 -5 22 -9 0 -4 9 -5 20 -3 11 2 23 -1 26
-7 5 -7 2 -8 -6 -3 -9 5 -11 4 -6 -4 6 -9 11 -9 23 1 14 11 15 10 9 -9 -4 -12
-2 -24 4 -28 5 -3 10 -1 10 5 0 6 4 9 10 5 5 -3 6 -13 3 -23 -3 -9 -3 -14 1
-11 4 4 8 16 11 27 3 16 -1 20 -15 17 -13 -3 -17 1 -13 12 3 8 9 11 12 6 8
-12 151 -10 170 1 10 6 12 5 7 -2 -9 -15 -1 -15 26 -1 15 8 19 8 14 0 -6 -10
6 -15 27 -12 4 0 7 -3 7 -7 0 -19 -15 -21 -36 -7 -25 16 -38 8 -23 -15 7 -13
9 -13 9 0 0 12 2 12 9 2 12 -19 16 -19 39 1 21 19 39 8 26 -15 -5 -10 -4 -10
6 -1 11 10 11 15 0 28 -12 15 0 22 14 8 3 -4 13 -8 21 -9 11 -2 12 2 2 17 -7
11 -13 15 -15 9 -2 -6 -11 -6 -24 1 -15 8 -19 8 -14 0 4 -6 2 -11 -3 -11 -6 0
-11 7 -11 15 0 10 8 14 23 11 12 -2 28 2 36 8 8 6 12 7 9 1 -3 -5 0 -15 7 -22
10 -10 14 -9 19 3 9 24 7 31 -5 14 -8 -12 -10 -12 -7 -1 2 8 25 20 50 28 38
11 46 17 43 33 -3 13 2 20 13 21 14 0 14 2 2 7 -8 4 -16 21 -17 39 -3 27 0 31
15 27 14 -5 15 -4 2 5 -8 6 -15 21 -15 33 0 18 -6 23 -27 23 -15 1 -25 -2 -22
-6 3 -6 -102 -50 -136 -56 -72 -14 -122 -16 -170 -10 -19 3 -40 6 -45 6 -6 1
-19 15 -29 32 -13 23 -21 27 -31 19 -12 -10 -14 -6 -25 38 -1 4 -7 14 -13 22
-6 8 -1 6 12 -5 l24 -20 -11 21 c-16 30 11 55 34 32 11 -12 26 -9 18 3 -5 8
-1 8 13 0 11 -6 23 -7 27 -4 12 13 34 11 32 -2 -3 -22 -27 -44 -41 -38 -8 2
-14 8 -13 11 2 19 -4 22 -23 11 -17 -9 -20 -8 -14 2 6 8 4 10 -5 4 -9 -5 -11
-4 -6 3 5 8 1 10 -9 5 -9 -3 -13 -9 -8 -12 14 -10 15 -34 1 -44 -10 -7 -9 -8
3 -4 9 3 22 0 28 -6 16 -16 27 1 13 23 -15 24 -9 25 22 5 20 -14 26 -14 38 -2
7 8 24 12 37 10 17 -2 22 1 17 12 -8 22 11 18 27 -5 12 -18 15 -18 20 -5 4 8
12 15 18 15 8 0 8 -4 -1 -15 -7 -9 -8 -15 -2 -15 17 0 22 28 6 40 -8 7 -14 8
-14 3 0 -5 -7 -10 -15 -10 -8 0 -12 3 -10 7 3 4 -6 7 -18 6 -12 -1 -21 -8 -19
-15 1 -7 -2 -10 -8 -6 -5 3 -10 12 -10 19 0 8 17 12 54 12 30 -1 52 -4 49 -8
-2 -5 1 -8 6 -8 6 0 11 4 11 8 0 4 10 8 23 9 l22 1 -23 -11 c-24 -11 -25 -28
-2 -35 9 -3 11 1 7 11 -4 10 2 17 16 22 39 12 47 13 42 5 -3 -5 4 -8 15 -7 11
1 20 4 20 7 0 3 9 6 20 7 11 1 20 -3 20 -8 0 -6 5 -7 12 -3 7 4 22 9 34 10 18
2 21 -1 17 -14 -4 -10 2 -7 14 7 16 19 18 32 13 58 -5 18 -4 36 1 39 5 3 6 11
2 17 -13 21 -14 49 -1 65 9 10 9 13 1 9 -7 -5 -15 5 -22 25 -6 18 -10 35 -8
38 1 3 -8 16 -20 30 -13 13 -23 29 -23 36 0 6 -7 15 -16 18 -8 3 -12 11 -8 17
4 8 3 9 -5 5 -6 -4 -14 0 -17 8 -3 9 -11 16 -16 16 -5 0 -21 9 -35 20 -14 11
-49 27 -77 36 -55 18 -217 26 -238 13z m93 -158 c7 12 9 11 9 -1 0 -13 1 -13
10 0 7 11 10 11 10 2 0 -7 5 -10 12 -6 6 4 8 3 4 -4 -3 -6 3 -13 14 -17 11 -4
18 -11 14 -16 -3 -6 -12 -5 -21 3 -8 7 -26 13 -39 14 -23 1 -23 0 -7 -27 9
-16 19 -26 22 -24 2 3 -1 11 -7 17 -7 7 -12 17 -12 23 1 5 10 -1 20 -14 17
-19 23 -21 35 -11 13 11 15 9 11 -11 -3 -13 -5 -26 -6 -29 -3 -6 -6 -21 -8
-34 -1 -5 -10 -2 -19 5 -9 8 -14 9 -10 3 10 -17 -76 -12 -89 5 -9 11 -12 12
-19 1 -5 -9 -4 -11 3 -6 7 4 12 3 12 -2 0 -10 -61 -9 -78 2 -6 4 -9 13 -5 21
6 18 24 20 21 3 -4 -15 22 -18 39 -5 7 5 20 7 28 3 9 -3 13 -2 10 4 -3 6 -15
10 -26 10 -10 0 -19 5 -19 11 0 5 5 7 12 3 6 -4 8 -3 4 4 -7 11 29 28 52 24
15 -3 16 14 0 24 -6 4 -8 3 -4 -4 3 -6 -1 -9 -11 -8 -10 2 -21 -2 -25 -8 -6
-8 -11 -7 -17 3 -6 9 -11 10 -15 2 -4 -6 -2 -11 5 -11 9 0 9 -3 0 -14 -6 -7
-8 -22 -4 -32 6 -17 5 -17 -10 -5 -9 7 -14 17 -11 22 3 5 -3 6 -13 3 -10 -3
-7 2 7 10 14 8 21 15 16 16 -5 0 -3 6 3 14 6 7 22 12 36 10 26 -2 34 10 13 20
-7 3 -3 3 10 0 14 -3 22 -1 23 8 0 10 2 10 6 -1 5 -11 7 -11 14 0z m99 -39 c0
-8 5 -10 13 -6 6 4 9 3 4 -1 -4 -5 0 -17 10 -27 9 -10 13 -18 8 -18 -4 0 -2
-7 5 -15 13 -16 11 -17 -38 -28 -15 -4 -22 -1 -19 6 2 7 11 12 20 12 9 0 16 5
16 10 -1 11 -3 11 -34 -1 -18 -7 -18 -6 -6 9 7 9 10 17 6 17 -4 0 -2 7 5 15
10 12 10 15 0 15 -8 0 -10 3 -7 7 4 3 -1 15 -10 26 -18 19 -17 19 5 6 12 -8
22 -20 22 -27z m-49 -9 c13 -16 12 -17 -3 -4 -10 7 -18 15 -18 17 0 8 8 3 21
-13z m-123 -309 c-4 -3 -12 5 -18 18 -12 22 -12 22 6 6 10 -10 15 -20 12 -24z
m-8 -49 c14 -19 14 -19 -2 -6 -10 7 -18 18 -18 24 0 6 1 8 3 6 1 -2 9 -13 17
-24z"/>
<path d="M1896 3332 c-3 -5 5 -8 17 -8 15 1 21 -4 19 -14 -2 -8 0 -11 4 -7 16
16 11 33 -12 35 -13 1 -25 -2 -28 -6z"/>
<path d="M1995 3309 c-4 -6 -5 -12 -2 -15 2 -3 7 2 10 11 7 17 1 20 -8 4z"/>
<path d="M2045 3330 c-3 -5 -5 -10 -3 -11 33 -8 38 -7 27 7 -14 17 -16 17 -24
4z"/>
<path d="M2763 3555 c-29 -7 -53 -10 -53 -7 0 2 -7 -1 -15 -8 -8 -7 -15 -9
-15 -5 0 4 -7 2 -15 -5 -8 -6 -20 -8 -26 -4 -8 4 -9 3 -5 -4 4 -7 3 -12 -2
-12 -16 0 -102 -82 -118 -112 -8 -15 -22 -28 -32 -29 -9 0 -12 -3 -6 -5 9 -4
9 -14 1 -37 -5 -18 -12 -39 -14 -47 -8 -24 -9 -179 -3 -175 4 2 6 -13 6 -35
-1 -21 2 -37 5 -34 4 2 14 -14 23 -37 9 -22 27 -52 41 -66 13 -15 22 -30 19
-35 -3 -4 2 -8 10 -8 9 0 16 -5 16 -11 0 -5 4 -8 8 -5 10 6 22 -3 42 -28 13
-18 13 -19 0 -11 -16 9 -16 10 18 -35 2 -3 2 4 0 14 -1 10 3 21 10 23 8 3 10
-1 5 -14 -6 -16 -5 -16 10 -4 11 9 17 10 17 2 0 -7 10 -10 24 -7 16 3 23 0 21
-7 -3 -7 5 -23 16 -37 16 -20 18 -21 10 -4 -6 12 -7 25 -3 29 4 5 0 5 -8 0 -8
-5 -12 -4 -7 0 11 13 37 15 37 4 0 -6 5 -7 12 -3 6 4 8 3 4 -4 -3 -6 -2 -13 4
-17 6 -4 8 -10 6 -14 -3 -4 4 -7 14 -8 11 -1 22 2 25 8 4 5 11 9 18 9 8 0 8
-3 -1 -12 -7 -7 -12 -16 -12 -20 0 -4 8 0 18 10 14 13 15 19 5 25 -7 4 -17 6
-22 2 -5 -3 -11 -2 -14 2 -2 5 -2 2 0 -5 1 -8 -3 -12 -9 -10 -7 3 -14 11 -16
19 -2 11 12 14 65 13 38 0 72 2 78 5 35 19 77 -3 47 -25 -9 -7 -15 -14 -12
-17 3 -2 16 7 30 21 14 13 19 22 13 18 -14 -8 -18 6 -6 18 4 4 16 -3 26 -16
l18 -23 -11 23 c-11 23 -5 30 34 36 8 1 19 6 23 11 4 4 3 5 -4 1 -9 -5 -12 13
-11 71 1 123 5 116 -52 87 -52 -26 -165 -43 -197 -29 -10 5 -22 9 -28 9 -21 2
-55 27 -50 37 4 5 2 8 -3 7 -15 -4 -53 44 -48 59 3 7 2 13 -2 13 -12 0 -18 81
-11 136 3 25 39 53 39 32 0 -9 3 -9 9 2 15 23 1 33 -20 14 -11 -10 -19 -12
-19 -6 0 7 5 12 10 12 6 0 9 4 8 8 -2 4 9 23 25 41 15 18 27 28 27 22 0 -6 5
-11 11 -11 5 0 7 5 3 12 -4 7 -3 8 5 4 6 -4 14 0 17 9 5 12 9 13 14 4 5 -7 18
-9 34 -5 15 4 25 10 22 14 -2 4 4 8 14 8 10 0 17 -4 14 -7 -2 -4 0 -10 6 -14
5 -3 10 -1 10 4 0 6 11 10 25 9 14 -1 25 -6 25 -10 0 -4 3 -7 8 -6 15 4 82
-24 77 -33 -4 -5 1 -6 9 -3 9 3 17 12 17 20 2 23 4 28 13 43 6 10 5 12 -3 7
-7 -5 -11 2 -10 21 1 15 1 44 0 64 -1 38 -8 42 -111 65 -50 12 -176 11 -227
-1z"/>
<path d="M640 3556 c0 -2 7 -7 16 -10 8 -3 12 -2 9 4 -6 10 -25 14 -25 6z"/>
<path d="M610 3546 c0 -2 7 -7 16 -10 8 -3 12 -2 9 4 -6 10 -25 14 -25 6z"/>
<path d="M1375 3540 c-4 -6 1 -7 11 -3 13 5 15 3 9 -7 -5 -9 -4 -11 4 -6 6 4
9 12 6 17 -8 12 -22 12 -30 -1z"/>
<path d="M3595 3540 c-3 -5 -1 -10 4 -10 6 0 11 5 11 10 0 6 -2 10 -4 10 -3 0
-8 -4 -11 -10z"/>
<path d="M710 3537 c0 -2 6 -10 14 -16 11 -9 16 -9 22 1 4 7 4 10 -1 6 -4 -4
-14 -3 -22 3 -7 6 -13 9 -13 6z"/>
<path d="M1255 3500 c3 -5 8 -10 11 -10 2 0 4 5 4 10 0 6 -5 10 -11 10 -5 0
-7 -4 -4 -10z"/>
<path d="M870 3491 c0 -6 5 -13 12 -17 6 -4 8 -3 4 4 -3 5 0 13 6 15 8 3 6 6
-4 6 -10 1 -18 -3 -18 -8z"/>
<path d="M830 3463 c0 -6 8 -17 18 -24 16 -13 16 -13 2 6 -8 11 -16 22 -17 24
-2 2 -3 0 -3 -6z"/>
<path d="M3275 3460 c3 -5 8 -10 11 -10 2 0 4 5 4 10 0 6 -5 10 -11 10 -5 0
-7 -4 -4 -10z"/>
<path d="M890 3439 c0 -5 5 -7 10 -4 6 3 10 8 10 11 0 2 -4 4 -10 4 -5 0 -10
-5 -10 -11z"/>
<path d="M1216 3382 c-3 -5 1 -9 9 -9 8 0 12 4 9 9 -3 4 -7 8 -9 8 -2 0 -6 -4
-9 -8z"/>
<path d="M2895 3368 c-28 -17 -67 -20 -58 -5 3 7 -3 4 -15 -6 -11 -11 -25 -16
-30 -13 -5 3 -20 -6 -33 -21 -13 -14 -18 -23 -11 -19 8 5 21 1 32 -9 14 -12
20 -13 26 -4 4 7 3 10 -4 5 -6 -4 -10 1 -9 13 0 10 9 24 19 30 21 13 24 2 6
-19 -7 -8 -1 -5 13 8 32 28 48 29 24 2 -20 -22 -30 -54 -14 -44 5 3 7 9 4 14
-3 4 2 14 11 21 26 21 65 27 99 15 14 -6 16 -5 7 2 -11 7 -9 10 7 15 13 3 25
-1 31 -11 5 -10 10 -12 10 -4 0 6 1 15 3 19 1 3 -5 8 -13 9 -42 9 -55 8 -52
-3 3 -17 -8 -16 -22 2 -9 11 -15 12 -31 3z m25 -3 c0 -2 -10 -9 -22 -15 -22
-11 -22 -10 -4 4 21 17 26 19 26 11z m-133 -40 c0 -8 -4 -15 -9 -15 -10 0 -11
14 -1 23 9 10 10 9 10 -8z"/>
<path d="M890 3340 c0 -5 5 -10 11 -10 5 0 7 5 4 10 -3 6 -8 10 -11 10 -2 0
-4 -4 -4 -10z"/>
<path d="M3600 3340 c-8 -5 -11 -10 -6 -10 5 0 3 -7 -4 -16 -11 -12 -10 -18 3
-30 9 -8 12 -9 7 -2 -15 18 -12 32 4 19 9 -8 16 -8 20 -2 4 5 1 13 -5 16 -5 4
-8 13 -5 21 6 16 6 17 -14 4z"/>
<path d="M2897 3315 c-4 -8 -3 -16 1 -19 4 -3 9 4 9 15 2 23 -3 25 -10 4z"/>
<path d="M2920 3326 c0 -2 8 -10 18 -17 15 -13 16 -12 3 4 -13 16 -21 21 -21
13z"/>
<path d="M3015 3319 c-4 -5 2 -6 11 -2 12 4 15 3 10 -5 -10 -16 -1 -15 12 1 8
10 6 13 -8 14 -11 1 -22 -2 -25 -8z"/>
<path d="M3676 3313 c-6 -14 -5 -15 5 -6 7 7 10 15 7 18 -3 3 -9 -2 -12 -12z"/>
<path d="M890 3299 c0 -5 5 -7 10 -4 6 3 10 8 10 11 0 2 -4 4 -10 4 -5 0 -10
-5 -10 -11z"/>
<path d="M3696 3301 c-3 -5 2 -15 12 -22 15 -12 16 -12 5 2 -7 9 -10 19 -6 22
3 4 4 7 0 7 -3 0 -8 -4 -11 -9z"/>
<path d="M3629 3283 c-13 -16 -12 -17 4 -4 9 7 17 15 17 17 0 8 -8 3 -21 -13z"/>
<path d="M1187 3275 c3 -8 9 -12 14 -9 12 7 11 11 -5 17 -10 4 -13 1 -9 -8z"/>
<path d="M3760 3275 c-11 -13 -10 -14 4 -9 9 3 16 10 16 15 0 13 -6 11 -20 -6z"/>
<path d="M890 3260 c0 -5 5 -10 11 -10 5 0 7 5 4 10 -3 6 -8 10 -11 10 -2 0
-4 -4 -4 -10z"/>
<path d="M3256 3262 c-3 -5 1 -9 9 -9 8 0 12 4 9 9 -3 4 -7 8 -9 8 -2 0 -6 -4
-9 -8z"/>
<path d="M3730 3265 c0 -5 5 -17 10 -25 5 -8 10 -10 10 -5 0 6 -5 17 -10 25
-5 8 -10 11 -10 5z"/>
<path d="M2356 3247 c3 -10 9 -15 12 -12 3 3 0 11 -7 18 -10 9 -11 8 -5 -6z"/>
<path d="M2393 3245 c0 -8 4 -12 9 -9 5 3 6 10 3 15 -9 13 -12 11 -12 -6z"/>
<path d="M4053 3241 c0 -11 5 -18 9 -15 4 3 5 11 1 19 -7 21 -12 19 -10 -4z"/>
<path d="M1196 3242 c-3 -5 1 -9 9 -9 8 0 12 4 9 9 -3 4 -7 8 -9 8 -2 0 -6 -4
-9 -8z"/>
<path d="M2730 3240 c0 -5 5 -10 10 -10 6 0 10 5 10 10 0 6 -4 10 -10 10 -5 0
-10 -4 -10 -10z"/>
<path d="M3550 3245 c0 -2 10 -10 23 -16 20 -11 21 -11 8 4 -13 16 -31 23 -31
12z"/>
<path d="M3610 3246 c0 -2 7 -7 16 -10 8 -3 12 -2 9 4 -6 10 -25 14 -25 6z"/>
<path d="M3676 3238 c3 -5 10 -6 15 -3 13 9 11 12 -6 12 -8 0 -12 -4 -9 -9z"/>
<path d="M3273 3225 c0 -8 4 -15 9 -15 4 0 8 4 8 9 0 6 -4 12 -8 15 -5 3 -9
-1 -9 -9z"/>
<path d="M2439 3228 c-5 -18 -6 -38 -1 -34 7 8 12 36 6 36 -2 0 -4 -1 -5 -2z"/>
<path d="M2717 3213 c-3 -5 4 -15 16 -23 21 -12 21 -12 7 6 -8 10 -15 20 -16
22 -1 2 -4 -1 -7 -5z"/>
<path d="M1210 3199 c0 -5 5 -7 10 -4 6 3 10 8 10 11 0 2 -4 4 -10 4 -5 0 -10
-5 -10 -11z"/>
<path d="M2356 3202 c-3 -5 1 -9 9 -9 8 0 12 4 9 9 -3 4 -7 8 -9 8 -2 0 -6 -4
-9 -8z"/>
<path d="M890 3180 c0 -5 5 -10 11 -10 5 0 7 5 4 10 -3 6 -8 10 -11 10 -2 0
-4 -4 -4 -10z"/>
<path d="M890 3139 c0 -5 5 -7 10 -4 6 3 10 8 10 11 0 2 -4 4 -10 4 -5 0 -10
-5 -10 -11z"/>
<path d="M2428 3137 c7 -8 8 -18 4 -22 -4 -5 -1 -5 6 -1 17 10 15 23 -4 30
-13 5 -14 4 -6 -7z"/>
<path d="M3233 3125 c0 -8 4 -12 9 -9 5 3 6 10 3 15 -9 13 -12 11 -12 -6z"/>
<path d="M890 3100 c0 -5 5 -10 11 -10 5 0 7 5 4 10 -3 6 -8 10 -11 10 -2 0
-4 -4 -4 -10z"/>
<path d="M1530 3099 c0 -5 5 -7 10 -4 6 3 10 8 10 11 0 2 -4 4 -10 4 -5 0 -10
-5 -10 -11z"/>
<path d="M1927 3096 c-4 -10 -1 -13 8 -9 8 3 12 9 9 14 -7 12 -11 11 -17 -5z"/>
<path d="M2141 3096 c-7 -8 -10 -19 -7 -25 3 -5 3 -11 -1 -14 -5 -2 -3 -3 3
-1 6 1 18 -3 25 -9 7 -7 6 -3 -4 9 -21 26 -22 41 -2 24 21 -17 33 -3 14 16
-14 13 -17 13 -28 0z"/>
<path d="M2213 3097 c-28 -12 -29 -19 -3 -42 17 -15 23 -16 33 -5 9 10 9 11
-1 6 -7 -4 -19 -2 -27 4 -15 13 -11 30 6 30 6 0 7 -4 4 -10 -3 -5 -2 -10 4
-10 5 0 12 6 14 13 4 10 6 10 6 0 1 -14 21 -18 21 -5 0 17 -35 29 -57 19z"/>
<path d="M2395 3100 c-3 -5 -1 -10 4 -10 6 0 11 5 11 10 0 6 -2 10 -4 10 -3 0
-8 -4 -11 -10z"/>
<path d="M4065 3100 c-3 -6 1 -7 9 -4 18 7 21 14 7 14 -6 0 -13 -4 -16 -10z"/>
<path d="M1180 3094 c0 -6 7 -19 16 -30 14 -18 14 -18 3 6 -14 31 -19 36 -19
24z"/>
<path d="M2330 3096 c0 -2 8 -10 18 -17 15 -13 16 -12 3 4 -13 16 -21 21 -21
13z"/>
<path d="M3274 3080 c0 -13 4 -16 10 -10 7 7 7 13 0 20 -6 6 -10 3 -10 -10z"/>
<path d="M2275 3060 c-16 -7 -17 -9 -3 -9 9 -1 20 4 23 9 7 11 7 11 -20 0z"/>
<path d="M3553 3055 c-3 -9 -3 -18 -1 -21 3 -3 8 4 11 16 6 23 -1 27 -10 5z"/>
<path d="M3756 3061 c-3 -5 1 -14 8 -20 10 -9 16 -9 21 -1 4 6 1 9 -7 8 -7 -2
-12 3 -10 10 2 14 -4 16 -12 3z"/>
<path d="M1535 3051 c-3 -5 -2 -12 3 -15 5 -3 9 1 9 9 0 17 -3 19 -12 6z"/>
<path d="M1971 3044 c0 -11 3 -14 6 -6 3 7 2 16 -1 19 -3 4 -6 -2 -5 -13z"/>
<path d="M2180 3052 c0 -6 5 -14 10 -17 6 -4 7 -11 4 -17 -4 -7 -2 -8 5 -4 9
6 9 12 -1 24 -7 10 -14 19 -15 21 -2 2 -3 -1 -3 -7z"/>
<path d="M4075 3049 c-4 -6 -5 -12 -2 -15 2 -3 7 2 10 11 7 17 1 20 -8 4z"/>
<path d="M2046 3038 c3 -5 10 -6 15 -3 13 9 11 12 -6 12 -8 0 -12 -4 -9 -9z"/>
<path d="M2113 3025 c0 -8 4 -12 9 -9 5 3 6 10 3 15 -9 13 -12 11 -12 -6z"/>
<path d="M3575 3020 c-3 -5 -1 -10 4 -10 6 0 11 5 11 10 0 6 -2 10 -4 10 -3 0
-8 -4 -11 -10z"/>
<path d="M1529 3003 c-13 -16 -12 -17 4 -4 9 7 17 15 17 17 0 8 -8 3 -21 -13z"/>
<path d="M1896 3007 c3 -10 9 -15 12 -12 3 3 0 11 -7 18 -10 9 -11 8 -5 -6z"/>
<path d="M2356 2993 c-6 -14 -5 -15 5 -6 7 7 10 15 7 18 -3 3 -9 -2 -12 -12z"/>
<path d="M3253 2991 c0 -11 5 -18 9 -15 4 3 5 11 1 19 -7 21 -12 19 -10 -4z"/>
<path d="M1190 2990 c0 -5 5 -10 11 -10 5 0 7 5 4 10 -3 6 -8 10 -11 10 -2 0
-4 -4 -4 -10z"/>
<path d="M2475 2990 c-3 -5 -1 -10 4 -10 6 0 11 5 11 10 0 6 -2 10 -4 10 -3 0
-8 -4 -11 -10z"/>
<path d="M896 2963 c-6 -14 -5 -15 5 -6 7 7 10 15 7 18 -3 3 -9 -2 -12 -12z"/>
<path d="M2481 2936 c-9 -11 -9 -16 1 -22 7 -4 10 -4 6 1 -4 4 -3 14 3 22 6 7
9 13 6 13 -2 0 -10 -6 -16 -14z"/>
<path d="M2510 2930 c0 -5 9 -14 20 -20 11 -6 20 -9 20 -8 0 2 -9 11 -20 21
-11 9 -20 13 -20 7z"/>
<path d="M895 2889 c-4 -6 -5 -12 -2 -15 2 -3 7 2 10 11 7 17 1 20 -8 4z"/>
<path d="M1621 2884 c0 -11 3 -14 6 -6 3 7 2 16 -1 19 -3 4 -6 -2 -5 -13z"/>
<path d="M2510 2878 c0 -6 6 -8 14 -5 8 3 17 2 20 -4 2 -5 3 -4 2 2 -3 15 -36
21 -36 7z"/>
<path d="M3256 2873 c-6 -14 -5 -15 5 -6 7 7 10 15 7 18 -3 3 -9 -2 -12 -12z"/>
<path d="M2566 2856 c5 -13 4 -17 -4 -12 -7 4 -12 2 -12 -3 0 -14 17 -14 26 0
3 6 1 16 -5 22 -9 9 -10 7 -5 -7z"/>
<path d="M2590 2861 c0 -6 4 -11 10 -11 5 0 7 -7 4 -15 -4 -8 -4 -15 -1 -15
13 0 14 30 1 40 -10 9 -14 9 -14 1z"/>
<path d="M1635 2851 c-3 -5 -2 -12 3 -15 5 -3 9 1 9 9 0 17 -3 19 -12 6z"/>
<path d="M2316 2833 c-6 -14 -5 -15 5 -6 7 7 10 15 7 18 -3 3 -9 -2 -12 -12z"/>
<path d="M2250 2825 c-7 -9 -8 -15 -2 -15 5 0 12 7 16 15 3 8 4 15 2 15 -2 0
-9 -7 -16 -15z"/>
<path d="M930 2798 c0 -6 3 -8 7 -5 3 4 14 0 23 -8 15 -14 18 -14 30 0 7 8 16
12 21 9 5 -3 -1 -14 -13 -25 l-23 -20 28 17 c15 9 27 13 27 9 0 -4 6 -2 14 4
11 9 20 9 35 2 23 -13 34 -2 20 19 -6 10 -9 11 -9 3 0 -7 -5 -13 -11 -13 -5 0
-8 4 -5 8 3 5 -1 9 -9 9 -8 0 -15 -4 -15 -9 0 -5 -6 -6 -12 -1 -16 9 -57 12
-56 4 2 -19 -4 -21 -18 -7 -18 19 -34 21 -34 4z"/>
<path d="M1123 2803 c9 -2 14 -9 11 -15 -4 -7 -2 -8 5 -4 15 10 4 26 -17 25
-15 -1 -15 -2 1 -6z"/>
<path d="M1787 2792 c-9 -10 -17 -22 -17 -27 0 -5 7 0 15 11 13 16 16 17 25 4
12 -18 13 -1 2 18 -7 10 -12 8 -25 -6z"/>
<path d="M2596 2801 c9 -9 34 -9 34 -1 0 5 -9 8 -20 7 -10 -1 -17 -3 -14 -6z"/>
<path d="M2675 2800 c-6 -9 -4 -11 5 -5 10 6 12 4 7 -8 -4 -12 -1 -15 14 -12
15 3 19 0 15 -10 -3 -8 -1 -17 3 -19 5 -3 8 3 7 14 0 11 -4 19 -8 18 -4 -2
-13 6 -21 16 -11 15 -16 16 -22 6z"/>
<path d="M3095 2801 c-3 -5 -2 -12 3 -15 5 -3 9 1 9 9 0 17 -3 19 -12 6z"/>
<path d="M3280 2800 c-9 -6 -10 -10 -3 -10 6 0 15 5 18 10 8 12 4 12 -15 0z"/>
<path d="M3346 2798 c3 -4 9 -8 15 -8 5 0 9 4 9 8 0 5 -7 9 -15 9 -8 0 -12 -4
-9 -9z"/>
<path d="M3380 2800 c0 -5 6 -10 14 -10 8 0 16 -5 18 -12 3 -7 7 -4 12 7 4 11
4 16 0 13 -4 -4 -15 -3 -25 3 -13 6 -19 6 -19 -1z"/>
<path d="M3486 2797 c3 -10 9 -15 12 -12 3 3 0 11 -7 18 -10 9 -11 8 -5 -6z"/>
<path d="M2226 2784 c-5 -14 -4 -15 9 -4 17 14 19 20 6 20 -5 0 -12 -7 -15
-16z"/>
<path d="M2953 2786 c-4 -5 -1 -6 7 -1 10 6 12 4 7 -8 -3 -9 -1 -19 6 -23 7
-4 9 -3 4 1 -4 5 0 16 8 25 13 14 12 16 -6 16 -11 0 -23 -5 -26 -10z"/>
<path d="M3837 2793 c-4 -3 -7 -11 -7 -17 0 -6 5 -5 12 2 6 6 9 14 7 17 -3 3
-9 2 -12 -2z"/>
<path d="M3980 2790 c-9 -6 -10 -10 -3 -10 6 0 15 5 18 10 8 12 4 12 -15 0z"/>
<path d="M1704 2783 c4 -4 16 -8 28 -10 28 -4 18 6 -12 12 -12 2 -20 1 -16 -2z"/>
<path d="M1915 2780 c-3 -5 -4 -10 0 -10 3 0 1 -8 -4 -18 -7 -14 -6 -19 4 -19
7 0 11 7 7 15 -3 10 -1 13 7 8 6 -4 18 -2 26 4 12 10 18 10 30 0 11 -10 19
-10 27 -2 6 6 18 8 26 4 14 -5 15 -4 2 10 -13 13 -16 14 -23 2 -4 -8 -13 -14
-19 -14 -7 0 -7 4 1 14 9 11 5 13 -21 11 -21 -1 -32 -6 -30 -14 1 -7 -3 -11
-10 -8 -7 2 -12 10 -10 16 3 14 -5 14 -13 1z"/>
<path d="M2650 2780 c0 -5 5 -10 11 -10 5 0 7 5 4 10 -3 6 -8 10 -11 10 -2 0
-4 -4 -4 -10z"/>
<path d="M2771 2783 c0 -4 4 -17 9 -28 8 -19 9 -19 9 2 1 12 -3 25 -9 28 -5 3
-10 3 -9 -2z"/>
<path d="M2906 2782 c-7 -7 5 -32 16 -32 5 0 6 5 3 10 -3 6 -1 10 4 10 6 0 11
-5 11 -12 0 -6 2 -9 5 -6 10 9 -5 35 -20 35 -8 0 -17 -2 -19 -5z"/>
<path d="M3333 2775 c0 -8 4 -12 9 -9 5 3 6 10 3 15 -9 13 -12 11 -12 -6z"/>
<path d="M3435 2779 c-4 -6 -4 -13 -1 -16 3 -4 6 -1 6 6 0 7 5 9 12 5 7 -4 8
-3 4 4 -9 15 -13 15 -21 1z"/>
<path d="M1826 2763 c-6 -14 -5 -15 5 -6 7 7 10 15 7 18 -3 3 -9 -2 -12 -12z"/>
<path d="M3367 2767 c-3 -8 1 -14 8 -14 7 0 11 6 8 14 -3 7 -6 13 -8 13 -2 0
-5 -6 -8 -13z"/>
<path d="M1050 2762 c0 -5 7 -9 15 -9 8 0 12 4 9 9 -3 4 -9 8 -15 8 -5 0 -9
-4 -9 -8z"/>
<path d="M1110 2758 c0 -4 4 -8 9 -8 6 0 12 4 15 8 3 5 -1 9 -9 9 -8 0 -15 -4
-15 -9z"/>
<path d="M1153 2755 c0 -8 4 -12 9 -9 5 3 6 10 3 15 -9 13 -12 11 -12 -6z"/>
<path d="M1793 2755 c0 -8 4 -12 9 -9 5 3 6 10 3 15 -9 13 -12 11 -12 -6z"/>
<path d="M3030 2765 c0 -7 30 -13 34 -7 3 4 -4 9 -15 9 -10 1 -19 0 -19 -2z"/>
<path d="M3079 2753 c-13 -16 -12 -17 4 -4 9 7 17 15 17 17 0 8 -8 3 -21 -13z"/>
<path d="M3459 2753 c-13 -16 -12 -17 3 -5 9 8 23 10 29 6 8 -4 9 -3 5 4 -10
17 -21 15 -37 -5z"/>
<path d="M3945 2760 c-3 -6 1 -7 9 -4 18 7 21 14 7 14 -6 0 -13 -4 -16 -10z"/>
<path d="M1836 2742 c-2 -4 -1 -14 4 -22 7 -11 9 -9 7 8 -1 24 -3 26 -11 14z"/>
<path d="M1955 2741 c-3 -5 0 -13 6 -17 8 -5 9 -3 4 6 -6 10 -4 12 9 7 10 -4
15 -3 11 3 -8 13 -22 13 -30 1z"/>
<path d="M2015 2740 c-4 -6 1 -7 11 -3 13 5 15 3 9 -8 -7 -11 -6 -12 7 -2 8 7
18 11 21 8 4 -3 5 -2 2 2 -9 11 -44 13 -50 3z"/>
<path d="M2879 2748 c-6 -21 -5 -37 2 -32 5 3 6 10 3 16 -5 8 -1 9 10 5 10 -4
15 -3 11 3 -5 9 -24 14 -26 8z"/>
<path d="M2509 2360 c-1 -14 0 -35 1 -47 1 -13 -4 -23 -12 -23 -8 0 -9 -3 -3
-8 14 -10 14 -165 1 -174 -7 -5 -7 -8 -1 -8 6 0 10 -26 10 -59 0 -33 -3 -57
-7 -55 -5 3 -8 0 -8 -5 0 -6 4 -11 8 -11 4 0 8 -22 8 -49 0 -32 -4 -48 -11
-44 -5 3 -4 0 3 -8 12 -13 18 -38 5 -26 -9 9 -34 -13 -27 -24 3 -5 11 -9 17
-9 8 0 8 3 -2 9 -9 6 -10 11 -2 15 13 9 13 9 15 -31 1 -18 -2 -33 -7 -33 -5 0
-3 -8 4 -17 10 -11 10 -14 2 -9 -7 4 -13 2 -13 -3 0 -6 3 -11 8 -11 4 0 7 -22
8 -49 0 -40 -2 -48 -15 -44 -13 4 -14 3 -2 -5 17 -12 24 -102 8 -102 -5 0 -3
-8 4 -17 10 -11 10 -14 2 -9 -7 4 -13 2 -13 -3 0 -6 4 -11 9 -11 10 0 8 -81
-4 -100 -5 -9 -4 -11 3 -6 16 10 15 -7 0 -23 -11 -11 -10 -12 2 -5 21 13 71
12 67 0 -4 -13 -30 -15 -38 -3 -4 5 -10 4 -13 -2 -4 -6 -2 -12 3 -12 6 -1 17
-2 24 -3 6 -1 17 1 22 5 17 11 46 6 41 -7 -3 -8 0 -16 7 -20 7 -4 9 -4 5 1 -4
4 -3 16 2 26 8 15 7 17 -10 14 -11 -2 -22 -1 -24 3 -6 11 127 8 143 -2 10 -6
12 -6 7 2 -4 7 -3 12 2 12 5 0 8 25 7 55 -1 30 1 53 4 50 4 -2 13 6 20 18 11
18 11 20 0 10 -24 -24 -36 -7 -16 23 3 6 3 14 -1 18 -4 4 -7 18 -7 32 -1 20 3
23 23 19 14 -2 21 -1 17 3 -3 4 -11 8 -16 8 -5 1 -13 2 -18 3 -11 1 -9 20 3
40 6 9 5 12 -2 7 -11 -7 -11 31 0 50 4 5 3 16 -3 24 -13 21 -11 32 4 24 8 -5
8 -2 -2 9 -11 14 -11 17 0 17 9 0 10 3 4 8 -11 8 -16 94 -5 87 4 -2 7 2 7 10
0 8 -3 12 -7 10 -3 -2 -7 12 -7 32 -1 21 2 31 7 24 5 -9 9 -7 12 7 4 14 2 19
-6 16 -7 -3 -13 2 -13 11 0 8 5 15 11 15 7 0 8 3 1 8 -16 11 -14 74 2 68 7 -3
15 -1 18 5 4 5 3 9 -2 8 -26 -4 -28 8 -28 137 0 75 -3 140 -6 145 -3 5 -56 10
-117 12 l-112 2 -1 -25z"/>
<path d="M3002 2382 c-38 -3 -43 -6 -40 -25 2 -12 -4 -28 -12 -35 -8 -7 -10
-12 -5 -11 21 3 23 -2 15 -36 -5 -21 -4 -38 2 -41 5 -4 5 -10 0 -17 -5 -7 -6
-21 -2 -32 9 -25 2 -47 -14 -38 -6 3 -6 1 2 -8 6 -7 12 -21 12 -31 0 -10 -6
-18 -12 -18 -9 0 -8 -4 2 -10 8 -5 11 -10 7 -10 -4 0 -3 -9 3 -20 6 -11 7 -20
2 -20 -4 0 -7 -15 -5 -32 8 -74 8 -84 1 -112 -4 -16 -3 -37 2 -47 7 -11 7 -20
0 -24 -5 -3 -6 -13 -3 -22 4 -11 3 -14 -5 -9 -8 5 -10 2 -6 -8 3 -9 9 -14 13
-12 3 2 6 -9 6 -25 0 -16 -3 -29 -8 -29 -10 0 -4 -23 8 -32 7 -5 7 -8 0 -8
-12 0 -13 -79 -1 -99 7 -10 3 -12 -13 -6 -12 4 -21 2 -21 -4 0 -6 6 -10 13 -8
8 1 11 -9 11 -30 -1 -18 3 -33 9 -33 8 0 8 -3 0 -11 -6 -6 -9 -17 -6 -25 3 -9
-2 -12 -17 -9 -13 2 -19 1 -16 -3 4 -4 12 -8 17 -8 5 -1 13 -2 18 -3 5 0 6
-16 1 -34 -7 -31 -6 -33 16 -29 19 3 23 1 19 -17 -2 -12 1 -21 6 -21 5 0 9 8
7 17 -2 14 4 18 30 19 17 0 32 -4 32 -8 0 -5 6 -6 13 -1 19 12 77 11 77 -2 0
-7 -13 -11 -30 -10 -16 1 -31 -4 -34 -11 -3 -9 2 -10 22 -5 15 5 34 7 43 6 12
-2 15 3 11 17 -4 15 -1 19 9 16 8 -3 13 -11 11 -17 -1 -7 2 -10 7 -6 6 3 7 13
4 22 -5 12 -3 14 8 8 12 -8 12 -6 0 8 -7 9 -10 17 -6 17 4 0 3 6 -4 13 -7 10
-7 17 0 24 8 8 8 17 0 32 -7 12 -8 21 -3 21 11 0 9 53 -3 62 -6 5 -5 8 3 8 7
0 10 5 6 12 -4 6 -3 8 3 5 6 -4 13 0 17 8 3 8 -3 19 -12 24 -9 6 -13 11 -9 11
5 0 21 -9 37 -20 15 -11 31 -16 35 -12 5 4 5 1 1 -5 -4 -7 -2 -13 4 -13 7 0 9
-7 6 -16 -3 -8 -2 -24 4 -34 7 -13 6 -19 -5 -24 -8 -3 -15 -10 -15 -16 0 -6
10 -2 22 9 11 11 25 18 29 15 5 -3 6 2 2 11 -5 14 -8 14 -15 3 -7 -10 -8 -8
-4 5 3 11 2 16 -4 12 -6 -3 -10 -2 -10 4 0 23 17 18 33 -9 21 -35 19 -53 -8
-62 -19 -6 -19 -6 1 -7 12 -1 28 7 35 16 12 14 12 16 0 8 -10 -5 -12 -4 -7 3
9 15 9 16 29 -9 17 -19 17 -20 0 -17 -20 3 -25 -24 -5 -28 7 -1 8 0 2 3 -18 9
-11 21 10 16 11 -3 17 -9 14 -14 -3 -5 0 -9 6 -9 6 0 8 -5 4 -12 -5 -9 -2 -9
9 1 9 7 17 10 17 5 0 -12 50 -69 50 -58 1 5 7 -2 15 -16 10 -19 11 -28 2 -40
-10 -13 -10 -13 4 -2 9 7 25 10 35 7 12 -4 11 -2 -3 6 -13 7 -23 16 -23 21 0
12 14 10 28 -4 8 -8 15 -9 22 -2 11 11 8 12 -39 16 -11 1 -18 6 -15 10 6 9 44
6 44 -5 0 -4 6 -5 12 0 18 11 88 12 88 2 0 -5 5 -9 11 -9 5 0 7 5 4 10 -3 6 4
10 17 10 18 0 20 -2 8 -10 -9 -6 -10 -10 -3 -10 6 0 15 5 18 10 3 6 13 10 21
10 8 0 12 -5 9 -11 -4 -6 2 -5 14 3 17 10 18 14 6 21 -9 4 -12 13 -9 19 4 6 3
8 -3 5 -12 -8 -196 181 -188 193 4 6 -1 7 -11 3 -13 -5 -16 -3 -11 10 3 9 3
16 -1 16 -20 -3 -33 2 -27 11 3 6 0 10 -7 10 -14 0 -44 39 -40 53 1 4 -1 6 -5
5 -5 -2 -23 12 -42 30 -20 19 -27 30 -16 26 12 -5 16 -4 12 3 -7 12 16 36 26
27 3 -3 8 4 12 16 6 18 9 19 23 8 9 -8 13 -8 9 -1 -14 23 3 40 36 37 22 -3 28
-1 17 5 -8 6 -19 7 -25 5 -5 -3 -2 1 7 9 10 8 15 17 12 20 -3 3 3 10 14 16 11
6 22 7 26 4 3 -3 6 0 6 8 0 16 81 95 93 91 5 -1 6 2 3 7 -3 5 11 25 31 45 l37
36 -134 0 c-134 0 -136 0 -165 -27 -16 -16 -33 -27 -38 -25 -5 1 -6 -2 -3 -7
8 -12 -18 -33 -29 -23 -5 4 -5 2 -2 -4 3 -5 -30 -46 -74 -89 -71 -71 -85 -80
-80 -51 1 4 -4 15 -11 24 -10 12 -10 14 0 8 14 -9 14 -9 3 32 -6 20 -6 30 0
27 11 -8 11 -7 -1 33 -8 29 -7 32 5 22 13 -11 13 -8 0 23 -9 22 -11 38 -5 42
5 3 7 12 4 20 -4 10 1 13 20 9 14 -2 26 0 26 5 0 4 -8 8 -17 8 -41 0 -43 2
-32 30 7 19 7 29 0 31 -6 2 -7 12 -1 27 6 16 6 27 -1 31 -7 4 -7 10 0 18 5 6
7 17 2 24 -4 6 -6 30 -5 51 l1 40 -76 3 c-42 2 -95 2 -119 0z"/>
<path d="M663 2342 c-35 -2 -63 -6 -64 -10 -1 -4 -2 -45 -3 -92 0 -47 -5 -91
-10 -99 -7 -11 -6 -12 5 -5 18 11 100 14 93 2 -3 -4 -1 -8 5 -8 5 0 12 4 15 9
6 9 96 9 111 -1 6 -4 17 -3 25 3 22 13 33 11 26 -6 -3 -8 -9 -22 -12 -31 -5
-11 -2 -15 11 -12 10 2 20 -3 22 -10 3 -6 -1 -10 -9 -9 -7 2 -10 2 -5 0 4 -3
5 -8 3 -12 -3 -4 5 -8 17 -8 12 -1 17 1 12 5 -6 4 -10 17 -9 29 1 13 -3 20 -9
16 -6 -4 -7 -1 -2 7 5 9 4 11 -3 6 -7 -4 -12 -2 -12 3 0 14 17 14 25 1 4 -6 9
-8 13 -6 4 2 8 -20 8 -50 1 -30 -2 -54 -8 -54 -5 0 -7 4 -3 9 3 5 1 12 -4 15
-5 4 -8 -2 -7 -11 2 -9 8 -19 14 -21 7 -2 12 -8 12 -13 0 -6 -5 -7 -12 -3 -8
5 -8 3 -2 -7 5 -8 9 -145 10 -304 0 -160 3 -296 7 -302 4 -6 20 -9 37 -7 16 2
30 -1 30 -6 0 -6 -5 -10 -11 -10 -5 0 -7 -4 -4 -10 10 -16 42 -11 50 8 5 14 4
15 -6 5 -7 -7 -16 -13 -21 -13 -4 0 -5 6 -3 13 4 8 31 12 85 13 43 0 77 -3 74
-7 -6 -10 24 -5 33 6 4 4 2 5 -4 1 -8 -4 -13 -1 -13 8 0 9 6 16 13 16 7 0 8 3
2 8 -13 9 -14 55 0 64 6 5 6 8 -2 8 -7 0 -13 7 -13 15 0 8 6 15 13 15 8 0 7 4
-3 10 -13 9 -13 10 0 10 9 0 11 3 5 8 -14 10 -15 85 -1 94 8 6 7 8 -1 8 -7 0
-13 7 -13 15 0 8 6 15 13 15 8 0 7 4 -3 10 -13 9 -13 10 0 10 9 0 11 3 5 8
-14 10 -15 85 -1 94 8 6 7 8 -1 8 -7 0 -13 7 -13 16 0 8 5 12 10 9 6 -3 10 -1
10 4 0 6 -6 11 -12 11 -9 0 -8 4 2 10 8 5 10 10 5 10 -14 0 -16 90 -1 90 7 0
8 3 0 8 -5 4 -10 33 -10 64 0 55 1 58 23 54 12 -3 22 0 20 6 -1 6 4 13 12 16
9 3 11 0 7 -7 -5 -7 -2 -10 6 -9 7 2 12 -3 10 -10 -1 -8 2 -11 7 -7 13 7 4 32
-15 39 -11 4 -12 10 -2 30 11 25 30 29 56 13 6 -5 12 -4 12 2 0 14 39 9 45 -6
3 -11 0 -11 -16 -2 -19 9 -19 9 -10 -10 9 -16 8 -20 -7 -24 -9 -3 1 -4 22 -2
24 1 43 9 48 19 7 13 13 14 23 6 15 -12 35 -6 35 11 0 5 -5 9 -11 9 -5 0 -7
-4 -4 -10 7 -11 -8 -14 -19 -3 -3 4 -17 8 -29 10 -15 2 -18 0 -9 -5 10 -7 10
-11 -3 -22 -13 -10 -18 -11 -28 -1 -9 10 -9 12 3 9 8 -2 14 4 15 12 0 11 12
15 45 16 83 3 88 4 93 23 2 11 0 24 -6 30 -8 8 -8 11 1 11 7 0 12 5 12 11 0 5
-4 7 -10 4 -5 -3 -10 -2 -10 4 0 5 5 13 10 16 7 4 8 11 2 18 -6 7 -10 25 -10
40 0 15 -2 30 -4 32 -5 6 -732 11 -825 7z m252 -202 c3 -5 1 -10 -4 -10 -6 0
-11 5 -11 10 0 6 2 10 4 10 3 0 8 -4 11 -10z m299 -2 c-3 -4 0 -8 5 -8 16 0
13 -15 -7 -40 -17 -21 -19 -21 -32 -4 -8 10 -10 15 -5 12 6 -4 16 2 23 13 14
21 3 26 -17 7 -11 -11 -11 -9 -1 8 7 11 19 21 26 21 7 0 11 -4 8 -9z"/>
<path d="M2750 2259 c0 -5 5 -7 10 -4 6 3 10 8 10 11 0 2 -4 4 -10 4 -5 0 -10
-5 -10 -11z"/>
<path d="M2475 2251 c-3 -5 -2 -12 3 -15 5 -3 9 1 9 9 0 17 -3 19 -12 6z"/>
<path d="M3210 2206 c0 -2 7 -7 16 -10 8 -3 12 -2 9 4 -6 10 -25 14 -25 6z"/>
<path d="M2754 2169 c-3 -6 -2 -15 3 -20 5 -5 9 -1 9 11 0 23 -2 24 -12 9z"/>
<path d="M3220 2160 c-8 -5 -10 -10 -5 -10 6 0 17 5 25 10 8 5 11 10 5 10 -5
0 -17 -5 -25 -10z"/>
<path d="M2910 2140 c0 -5 5 -10 11 -10 5 0 7 5 4 10 -3 6 -8 10 -11 10 -2 0
-4 -4 -4 -10z"/>
<path d="M630 2130 c0 -6 -4 -9 -8 -6 -5 3 -9 -1 -9 -9 0 -12 3 -12 16 -3 9 7
17 13 19 14 2 1 -1 5 -7 9 -6 3 -11 1 -11 -5z"/>
<path d="M664 2113 c-1 -13 1 -21 5 -16 3 4 10 10 14 14 4 3 2 11 -5 17 -10 8
-13 5 -14 -15z"/>
<path d="M709 2134 c-1 -2 -2 -7 -3 -11 -1 -5 -5 -14 -9 -20 -5 -8 -4 -13 2
-13 10 0 15 14 12 33 -2 16 18 6 24 -13 5 -16 10 -18 26 -9 15 8 25 7 37 -2 9
-8 14 -9 10 -5 -4 5 -3 15 3 23 6 7 10 13 8 14 -12 3 -109 5 -110 3z m61 -16
c0 -4 -7 -8 -15 -8 -8 0 -15 4 -15 8 0 5 7 9 15 9 8 0 15 -4 15 -9z m40 6 c0
-8 -19 -13 -24 -6 -3 5 1 9 9 9 8 0 15 -2 15 -3z"/>
<path d="M842 2131 c-7 -4 -15 -20 -16 -34 -2 -15 1 -24 6 -21 5 3 7 12 4 20
-3 8 -1 14 3 14 5 0 11 7 15 15 6 17 6 18 -12 6z"/>
<path d="M1259 2137 c-5 -11 -6 -37 -1 -33 3 4 12 -4 19 -16 l14 -23 -6 23
c-4 12 -3 22 2 21 18 -3 33 2 33 11 0 6 -3 9 -7 9 -5 -1 -10 0 -13 1 -8 3 -40
8 -41 7z m37 -19 c3 -4 -1 -5 -10 -4 -8 1 -18 5 -22 8 -3 4 1 5 10 4 8 -1 18
-5 22 -8z"/>
<path d="M1883 2123 c4 -6 -12 -11 -41 -12 -121 -4 -222 -26 -223 -49 -1 -23
-2 -100 0 -141 1 -33 1 -34 21 -16 11 10 22 16 24 14 1 -2 8 -13 15 -24 12
-19 12 -19 6 2 -6 24 3 32 43 39 15 3 36 7 46 11 15 4 18 2 13 -12 -4 -9 -7
-20 -7 -23 0 -4 -5 0 -11 8 -8 11 -12 12 -16 3 -2 -7 -9 -13 -14 -13 -6 0 -8
4 -5 8 3 5 -1 9 -9 9 -8 0 -15 -4 -15 -9 0 -5 -5 -6 -11 -2 -8 4 -8 1 -1 -12
5 -11 12 -26 16 -34 3 -8 4 -3 1 13 -3 15 -1 27 5 27 5 0 10 -5 10 -11 0 -8 5
-8 15 1 12 10 18 10 32 -1 11 -10 14 -10 9 -1 -4 7 -2 12 4 12 6 0 8 5 5 10
-3 6 1 10 10 10 9 0 13 -5 10 -10 -3 -6 2 -13 11 -17 11 -4 19 -2 22 6 3 9 9
8 23 -5 15 -14 21 -15 34 -4 18 15 21 13 34 -20 7 -18 10 -20 10 -7 1 19 16
23 26 7 3 -5 15 -14 25 -20 28 -15 35 5 10 30 -11 11 -15 20 -10 20 6 0 10 5
10 11 0 8 -5 8 -15 -1 -8 -7 -15 -9 -15 -5 0 5 -9 0 -20 -10 -21 -19 -29 -8
-8 13 8 8 4 10 -18 6 -22 -3 -25 -2 -14 6 12 8 9 9 -13 6 -18 -3 -25 -1 -21 6
5 7 2 8 -5 4 -9 -6 -8 -13 5 -27 9 -10 13 -19 7 -19 -5 0 -18 9 -28 20 -11 12
-13 20 -6 20 7 0 10 4 7 9 -7 11 65 5 73 -6 10 -14 44 -16 35 -2 -5 9 -3 9 7
3 8 -5 17 -9 21 -9 3 0 16 -13 28 -28 19 -24 20 -30 8 -44 -11 -15 -11 -16 5
-10 10 4 16 3 12 -3 -3 -5 -21 -8 -41 -6 -19 1 -37 -1 -40 -6 -3 -5 -12 -4
-19 2 -10 8 -14 7 -18 -2 -4 -11 -6 -11 -6 0 -1 9 -6 10 -20 2 -14 -7 -22 -7
-26 0 -5 8 -12 7 -22 -2 -19 -16 -16 -16 -39 2 -10 8 -16 10 -11 5 4 -5 -21
-16 -55 -25 -35 -9 -70 -19 -78 -21 -8 -2 -21 -10 -28 -17 -8 -7 -18 -10 -23
-6 -5 3 -8 0 -7 -8 2 -7 -3 -12 -10 -10 -6 1 -11 -1 -10 -5 3 -16 -15 -43 -25
-36 -5 3 -7 1 -4 -5 8 -12 -2 -44 -12 -38 -4 3 -6 -10 -6 -27 1 -18 -3 -38 -9
-46 -7 -9 -7 -13 -1 -9 6 4 11 -2 11 -13 0 -13 -5 -18 -16 -14 -11 4 -10 1 3
-9 9 -7 17 -19 17 -26 0 -10 -3 -10 -15 0 -13 11 -14 10 -9 -4 3 -9 12 -16 20
-16 8 0 14 -9 14 -20 0 -11 5 -20 10 -20 6 0 9 -4 8 -8 -2 -4 9 -19 23 -33 39
-36 53 -66 34 -72 -11 -3 -10 -4 2 -3 10 1 17 9 17 19 -1 13 2 14 17 6 11 -5
19 -13 19 -17 0 -9 13 -10 108 -14 34 -1 63 -7 63 -13 1 -5 2 -18 2 -27 0 -10
3 -18 8 -18 5 0 7 13 5 28 -2 24 2 31 25 39 21 8 31 8 36 1 4 -7 1 -8 -7 -3
-9 6 -11 4 -6 -4 5 -8 2 -11 -9 -9 -11 2 -19 -4 -21 -15 -2 -16 2 -15 29 6 31
23 64 26 51 5 -4 -7 -2 -8 4 -4 6 4 9 13 6 21 -4 10 0 13 15 10 12 -2 21 1 21
6 0 6 7 6 18 1 9 -5 23 -7 30 -5 6 3 12 0 12 -7 0 -6 -4 -9 -9 -6 -5 3 -8 -6
-8 -21 0 -26 0 -26 18 8 10 19 18 28 19 22 0 -7 5 -13 11 -13 5 0 8 3 6 8 -3
4 15 7 40 8 24 1 39 -2 32 -7 -7 -4 -21 -6 -31 -4 -10 2 -16 0 -13 -5 3 -6 0
-7 -8 -4 -8 3 -18 1 -22 -5 -4 -7 0 -8 11 -4 14 5 15 3 6 -13 -9 -16 -7 -20 8
-20 13 0 16 4 9 12 -6 7 -4 16 6 24 12 10 16 9 21 -4 3 -9 3 -23 0 -32 -4 -9
-2 -13 5 -8 6 3 9 16 7 28 -3 16 2 25 19 33 13 6 21 8 18 3 -6 -9 19 -21 53
-25 12 -2 20 1 16 6 -3 5 -9 7 -14 4 -11 -7 -40 5 -40 17 0 5 6 8 13 7 30 -4
35 2 32 48 -2 34 2 52 14 61 13 11 13 13 1 9 -12 -4 -15 6 -16 49 0 30 4 54 9
54 5 0 3 8 -4 17 -10 11 -10 14 -1 9 6 -4 12 -2 12 3 0 6 -3 11 -8 11 -4 0 -7
24 -7 54 0 30 3 52 7 50 5 -3 8 0 8 5 0 6 -4 11 -10 11 -5 0 -10 5 -10 11 0 5
5 7 11 3 8 -5 8 -1 0 14 -14 26 -14 45 -1 37 6 -3 10 -1 10 4 0 6 -4 11 -10
11 -5 0 -10 11 -10 24 0 14 -4 36 -10 50 -6 17 -6 26 0 26 6 0 1 9 -10 20 -19
19 -25 34 -20 55 1 6 -1 7 -5 3 -3 -3 -21 9 -40 27 -46 47 -125 72 -246 79
-31 2 -62 7 -69 11 -8 5 -11 4 -7 -2z m-44 -184 c-11 -7 -11 -9 -1 -9 7 0 10
-4 7 -10 -10 -16 -23 -11 -20 8 2 9 4 21 4 25 1 5 6 5 12 1 8 -4 7 -9 -2 -15z
m176 -68 c5 -11 2 -11 -17 1 -12 8 -24 20 -26 27 -6 18 36 -9 43 -28z m-111
-183 c-5 -7 -2 -9 8 -6 8 4 20 -2 26 -13 8 -13 9 -19 1 -19 -5 0 -7 -5 -3 -12
6 -9 9 -9 12 0 2 7 8 12 13 12 6 0 8 -4 5 -8 -2 -4 4 -8 14 -9 18 -2 18 -1 2
16 -9 10 -21 18 -26 17 -4 -1 -10 6 -11 15 -3 16 17 20 30 7 3 -3 21 -3 40 -1
19 2 35 -1 35 -6 0 -6 -8 -8 -17 -5 -17 5 -17 5 -1 -8 14 -12 17 -30 9 -55 -1
-2 -2 -6 -3 -10 0 -5 -8 -14 -17 -21 -12 -10 -12 -12 -1 -6 9 5 8 -1 -5 -15
-23 -26 -74 -55 -83 -47 -3 3 -11 1 -19 -5 -7 -7 -13 -7 -13 -2 0 6 -11 8 -25
5 -15 -2 -25 0 -25 7 0 6 -5 10 -11 9 -6 -2 -16 6 -22 17 -7 11 -14 22 -17 25
-11 10 -5 49 9 62 10 10 12 10 7 1 -4 -7 -2 -13 4 -13 8 0 7 -6 -1 -21 -6 -12
-7 -25 -2 -30 5 -5 9 0 10 13 2 22 21 40 35 32 4 -3 8 0 8 5 0 6 -4 11 -10 11
-5 0 -10 4 -10 8 0 5 7 9 15 9 8 0 15 -6 15 -13 0 -7 4 -16 10 -19 6 -4 7 2 1
17 -10 27 -47 31 -45 5 1 -9 -2 -17 -7 -17 -5 0 -9 7 -9 15 0 8 -6 15 -12 15
-7 0 -4 6 7 12 11 7 20 10 21 7 0 -2 9 3 19 11 11 8 16 10 12 4 -4 -7 0 -15 9
-18 11 -4 15 -2 11 8 -3 8 -3 17 0 20 10 10 15 7 7 -6z m148 -235 c-6 -2 -9
-10 -6 -15 4 -7 2 -8 -5 -4 -13 9 -5 26 12 25 9 0 8 -2 -1 -6z m1 -52 c3 -13
-1 -17 -17 -16 -12 1 -24 -3 -28 -9 -5 -7 -8 -6 -8 4 0 13 -2 13 -9 1 -10 -15
-41 -25 -41 -13 1 12 75 59 87 55 6 -3 13 -12 16 -22z"/>
<path d="M1955 1679 c-5 -7 -4 -10 1 -6 5 3 25 -8 43 -24 39 -33 40 -34 37
-15 -3 22 -28 47 -41 42 -7 -2 -17 0 -23 6 -6 6 -12 6 -17 -3z m66 -26 c13
-17 13 -17 -6 -3 -11 8 -22 16 -24 17 -2 2 0 3 6 3 6 0 17 -8 24 -17z"/>
<path d="M1906 1654 c-9 -24 -2 -26 12 -4 7 11 8 20 3 20 -5 0 -12 -7 -15 -16z"/>
<path d="M1939 1618 c-5 -9 -5 -48 -1 -43 6 6 11 45 5 45 -2 0 -4 -1 -4 -2z"/>
<path d="M1830 1539 c0 -5 5 -7 10 -4 6 3 10 8 10 11 0 2 -4 4 -10 4 -5 0 -10
-5 -10 -11z"/>
<path d="M1900 1540 c-9 -6 -10 -10 -3 -10 6 0 15 5 18 10 8 12 4 12 -15 0z"/>
<path d="M2011 1406 c-10 -11 -9 -14 1 -12 14 2 23 15 15 22 -2 2 -10 -2 -16
-10z"/>
<path d="M4110 2123 c0 -6 -7 -10 -16 -9 -14 2 -96 -9 -139 -18 -50 -11 -135
-86 -135 -119 0 -14 -5 -17 -17 -12 -15 5 -16 4 -5 -6 15 -16 16 -33 0 -23 -7
5 -8 3 -2 -7 11 -18 11 -41 0 -56 -5 -9 -4 -13 4 -13 8 0 10 -3 7 -6 -3 -4 -2
-15 4 -25 11 -21 0 -26 -18 -8 -8 8 -13 8 -18 0 -3 -6 -3 -11 2 -10 19 5 41
-13 36 -29 -4 -9 -3 -14 2 -10 4 4 14 0 21 -10 16 -20 18 -46 4 -37 -5 3 -10
1 -10 -4 0 -15 13 -14 29 2 11 10 13 10 7 0 -4 -7 -2 -13 4 -13 6 0 8 -5 4
-12 -5 -9 -2 -9 9 1 12 9 17 10 17 2 0 -7 5 -9 12 -5 7 4 8 3 4 -5 -4 -6 -12
-9 -17 -6 -5 4 -9 1 -9 -4 0 -14 6 -14 31 -1 13 8 19 7 19 0 0 -6 4 -9 9 -6
12 8 41 -4 41 -16 0 -7 -4 -7 -12 -1 -14 11 -48 14 -47 4 0 -3 4 -15 9 -26 8
-19 9 -19 9 3 1 12 6 22 12 22 5 0 7 -6 3 -12 -4 -7 -4 -10 1 -6 4 4 13 1 20
-6 7 -7 27 -12 44 -11 19 1 30 -3 29 -9 -2 -7 2 -12 7 -13 6 -1 8 6 7 15 -3
13 -1 14 11 4 7 -6 17 -8 22 -4 4 4 5 -4 1 -18 -3 -14 -3 -19 0 -12 3 6 9 10
14 7 5 -3 18 7 29 21 12 15 21 22 21 16 0 -6 9 -9 20 -7 11 2 20 0 20 -6 0 -5
-6 -9 -12 -9 -9 0 -8 -3 2 -10 11 -7 17 -5 22 8 5 13 7 14 8 2 1 -8 3 -25 6
-37 4 -24 -10 -31 -22 -11 -5 7 -2 9 7 4 8 -4 1 4 -16 18 -18 15 -32 21 -36
15 -3 -6 -10 -9 -14 -7 -4 1 -14 -8 -22 -22 -14 -23 -14 -24 1 -6 9 11 16 16
16 11 0 -5 5 -4 12 3 7 7 17 12 22 12 6 0 5 -5 -1 -11 -6 -6 -9 -18 -6 -27 5
-11 3 -13 -7 -7 -9 5 -11 4 -6 -4 10 -15 27 -4 24 16 -2 9 2 18 8 20 6 2 11
-2 11 -9 0 -7 2 -19 4 -27 5 -17 -18 -23 -115 -28 -63 -4 -77 -2 -70 9 6 10 5
11 -8 1 -8 -7 -17 -10 -20 -7 -4 3 -21 8 -40 11 -18 3 -41 9 -50 14 -10 5 -18
7 -18 3 0 -3 -12 1 -26 11 -42 27 -52 15 -50 -59 2 -54 0 -66 -13 -67 -14 0
-14 -1 0 -7 10 -5 15 -20 15 -49 -1 -22 3 -39 7 -36 5 3 7 16 4 30 -4 21 -2
24 17 18 42 -12 61 -17 73 -17 18 -2 6 -11 -18 -15 -11 -2 -18 1 -15 5 3 5 -1
9 -9 9 -8 0 -15 -4 -15 -9 0 -4 5 -8 11 -8 5 0 7 -5 3 -11 -5 -8 -1 -8 14 0
17 9 23 7 36 -11 9 -12 16 -18 16 -12 0 5 -4 14 -9 20 -6 5 -4 14 5 22 8 7 14
9 14 4 0 -5 15 -8 33 -7 19 1 34 -4 34 -9 0 -6 -13 -11 -28 -11 -15 -1 -26 2
-24 5 2 4 -2 7 -10 7 -10 0 -12 -4 -5 -12 5 -7 6 -16 2 -20 -4 -5 -1 -5 6 -1
7 4 12 2 12 -5 0 -7 7 -4 15 7 12 16 16 17 24 4 5 -8 8 -17 5 -21 -2 -4 1 -11
7 -15 8 -4 9 -3 5 4 -4 7 -1 12 6 12 10 0 9 3 -2 10 -8 5 -11 12 -7 16 9 9 38
-16 32 -26 -3 -5 0 -12 6 -16 8 -4 9 -3 5 4 -4 7 -2 12 3 12 20 0 26 -4 23
-16 -1 -7 1 -15 6 -18 10 -6 9 24 -2 42 -4 6 -5 16 -2 20 3 5 -1 9 -8 9 -8 0
-12 -6 -9 -14 3 -7 1 -13 -5 -13 -6 0 -9 8 -8 17 2 14 14 18 54 19 29 0 52 -4
52 -9 0 -5 -7 -6 -15 -3 -9 3 -18 -1 -21 -9 -4 -8 -10 -12 -15 -9 -5 3 -6 10
-3 16 5 7 2 8 -5 3 -9 -5 -10 -10 -2 -18 12 -12 53 -18 46 -6 -3 4 2 10 11 13
24 9 28 7 14 -9 -9 -10 -9 -15 -1 -15 6 0 11 5 11 10 0 6 11 3 24 -5 26 -17
34 -12 41 25 3 17 1 18 -14 11 -12 -7 -18 -6 -18 2 0 14 52 16 64 3 5 -5 2 -6
-6 -1 -9 5 -12 3 -9 -6 3 -8 1 -23 -4 -34 -8 -18 -8 -19 5 -3 9 12 17 14 25 8
7 -6 10 -7 7 -4 -3 4 1 14 8 23 10 14 10 14 -4 3 -14 -11 -16 -9 -16 13 0 30
8 32 27 5 22 -30 33 -24 13 7 -10 15 -12 24 -5 20 7 -5 12 -3 12 3 0 6 5 8 10
5 6 -4 8 -11 5 -16 -4 -5 -2 -17 4 -26 8 -15 9 -13 7 11 -2 21 7 39 37 72 22
24 42 42 46 40 3 -2 7 8 7 22 2 33 7 53 17 70 5 7 4 12 -2 12 -6 0 -11 5 -11
11 0 6 8 8 18 5 15 -6 15 -5 -1 8 -11 8 -14 17 -8 20 6 4 4 16 -5 34 -7 15
-14 33 -14 40 0 16 -90 103 -101 97 -4 -3 -20 0 -36 7 -15 6 -32 12 -36 12 -4
1 -12 8 -17 16 -7 11 -10 11 -10 2 0 -19 -91 -4 -108 17 -8 9 -11 10 -7 4 4
-9 -2 -13 -20 -13 -17 0 -24 4 -19 12 5 7 3 8 -5 4 -7 -5 -18 0 -26 10 -20 26
-18 39 2 23 11 -10 14 -10 9 -1 -4 6 -3 12 3 12 5 0 11 -6 14 -12 2 -7 2 -4 0
7 -3 11 -5 25 -5 32 -1 7 -5 10 -10 7 -5 -3 -5 -10 -2 -16 4 -6 2 -8 -3 -5
-19 12 -36 -19 -23 -43 11 -20 10 -21 -10 -10 -11 6 -18 16 -14 22 4 5 0 14
-7 19 -11 7 -11 9 -1 9 7 0 10 5 6 12 -5 7 -3 8 6 3 10 -6 12 -4 7 9 -4 10 -3
15 3 11 6 -3 10 -1 10 6 0 7 3 9 7 6 3 -4 12 -2 20 5 8 6 13 7 12 2 -2 -5 5
-24 14 -41 19 -35 31 -44 20 -15 -6 15 -5 16 12 2 11 -9 16 -10 11 -2 -4 7 -2
12 8 12 8 0 17 -4 21 -10 7 -12 35 -2 35 14 0 15 48 37 56 24 3 -5 12 -7 19
-4 7 2 25 -2 41 -10 16 -9 30 -15 32 -15 14 4 32 -1 28 -8 -4 -5 3 -7 14 -4
20 5 25 30 21 103 -4 68 -6 75 -29 78 -13 2 -20 8 -16 14 4 6 3 8 -2 5 -5 -3
-50 0 -99 6 -50 7 -103 12 -120 12 -16 0 -33 5 -37 10 -5 6 -8 6 -8 -2z m64
-175 c-3 -4 0 -16 6 -25 10 -17 10 -17 8 1 -2 13 4 20 19 22 l21 4 -21 -24
c-17 -19 -24 -21 -38 -13 -10 6 -16 14 -13 18 2 4 -1 11 -7 15 -7 4 -9 3 -6
-2 3 -6 1 -16 -5 -24 -8 -13 -9 -13 -5 1 3 9 -1 16 -8 16 -7 0 -11 -7 -8 -16
4 -14 4 -14 -6 -1 -16 22 -14 28 12 32 38 5 56 4 51 -4z m-121 -294 c16 0 33
-7 38 -15 7 -12 9 -12 9 1 0 12 2 12 9 1 6 -9 11 -10 15 -2 13 20 27 1 15 -21
-9 -17 -13 -18 -20 -7 -4 8 -13 14 -19 14 -6 0 -15 7 -20 15 -5 8 -10 10 -10
5 0 -14 -38 -17 -46 -3 -4 7 -9 6 -14 -2 -5 -9 -9 -9 -14 -1 -4 6 -2 11 4 11
6 0 8 5 4 12 -5 8 -3 8 7 2 8 -5 27 -9 42 -10z m0 -315 c4 -16 3 -18 -9 -8 -7
6 -11 15 -8 20 8 13 11 11 17 -12z m161 -5 c3 -8 12 -11 21 -8 11 5 14 2 9
-10 -7 -17 -30 -9 -52 17 -9 11 -8 14 3 14 8 0 16 -6 19 -13z"/>
<path d="M635 2101 c-3 -5 -2 -12 3 -15 5 -3 9 1 9 9 0 17 -3 19 -12 6z"/>
<path d="M2466 2082 c-3 -5 1 -9 9 -9 8 0 12 4 9 9 -3 4 -7 8 -9 8 -2 0 -6 -4
-9 -8z"/>
<path d="M836 2061 c-3 -5 2 -15 12 -22 15 -12 16 -12 5 2 -7 9 -10 19 -6 22
3 4 4 7 0 7 -3 0 -8 -4 -11 -9z"/>
<path d="M1335 2060 c-3 -5 -1 -10 4 -10 6 0 11 5 11 10 0 6 -2 10 -4 10 -3 0
-8 -4 -11 -10z"/>
<path d="M2475 2051 c-3 -5 0 -13 6 -17 7 -4 9 -3 5 4 -3 5 0 13 6 15 9 4 10
6 1 6 -6 1 -14 -3 -18 -8z"/>
<path d="M2930 2021 c0 -6 4 -13 10 -16 6 -3 7 1 4 9 -7 18 -14 21 -14 7z"/>
<path d="M1186 2003 c-6 -14 -5 -15 5 -6 7 7 10 15 7 18 -3 3 -9 -2 -12 -12z"/>
<path d="M1210 1981 c0 -6 4 -13 10 -16 6 -3 7 1 4 9 -7 18 -14 21 -14 7z"/>
<path d="M2915 1960 c3 -5 8 -10 11 -10 2 0 4 5 4 10 0 6 -5 10 -11 10 -5 0
-7 -4 -4 -10z"/>
<path d="M3620 1960 c-9 -6 -10 -10 -3 -10 6 0 15 5 18 10 8 12 4 12 -15 0z"/>
<path d="M2475 1951 c-3 -5 -2 -12 3 -15 5 -3 9 1 9 9 0 17 -3 19 -12 6z"/>
<path d="M894 1930 c0 -13 4 -16 10 -10 7 7 7 13 0 20 -6 6 -10 3 -10 -10z"/>
<path d="M3584 1938 c-4 -7 -3 -8 4 -4 7 4 12 3 12 -3 0 -5 -6 -11 -12 -14 -7
-3 -3 -4 9 -4 17 1 20 4 12 19 -11 21 -15 22 -25 6z"/>
<path d="M3634 1939 c-3 -6 -2 -15 3 -20 5 -5 9 -1 9 11 0 23 -2 24 -12 9z"/>
<path d="M4065 1932 c-5 -4 -17 -16 -25 -27 -11 -15 -7 -14 13 4 24 22 32 31
25 31 -2 0 -7 -4 -13 -8z"/>
<path d="M4249 1935 c-1 -5 -1 -14 0 -19 1 -5 -5 -6 -14 -2 -10 3 -13 2 -10
-5 4 -5 16 -7 28 -3 20 6 21 5 7 -12 -14 -18 -14 -18 5 -2 15 12 25 14 38 7 9
-6 15 -14 12 -19 -3 -5 -1 -11 4 -14 12 -8 8 13 -8 43 -9 16 -16 20 -24 12 -7
-7 -14 -5 -23 7 -8 9 -14 13 -15 7z"/>
<path d="M2941 1914 c0 -11 3 -14 6 -6 3 7 2 16 -1 19 -3 4 -6 -2 -5 -13z"/>
<path d="M4333 1903 c9 -11 15 -22 12 -25 -3 -2 1 -5 9 -5 7 0 13 7 11 16 -1
9 -6 16 -11 16 -5 0 -16 4 -24 9 -10 7 -10 3 3 -11z"/>
<path d="M2021 1893 c7 -12 15 -20 18 -17 3 2 -3 12 -13 22 -17 16 -18 16 -5
-5z"/>
<path d="M3545 1902 c-13 -9 -17 -32 -6 -32 5 0 11 9 14 20 6 22 6 22 -8 12z"/>
<path d="M1804 1888 c3 -15 26 -23 26 -8 0 6 -4 9 -9 6 -5 -4 -12 -1 -14 4 -3
6 -4 5 -3 -2z"/>
<path d="M2475 1889 c-4 -6 -5 -12 -2 -15 2 -3 7 2 10 11 7 17 1 20 -8 4z"/>
<path d="M3225 1892 c3 -3 -1 -12 -7 -21 -8 -10 -4 -9 10 3 26 23 26 23 7 23
-8 0 -13 -3 -10 -5z"/>
<path d="M3565 1890 c-3 -6 1 -7 9 -4 18 7 21 14 7 14 -6 0 -13 -4 -16 -10z"/>
<path d="M1754 1875 c3 -23 12 -26 13 -5 1 11 -2 20 -7 20 -4 0 -7 -7 -6 -15z"/>
<path d="M1913 1875 c0 -8 4 -12 9 -9 5 3 6 10 3 15 -9 13 -12 11 -12 -6z"/>
<path d="M2913 1875 c0 -8 4 -12 9 -9 5 3 6 10 3 15 -9 13 -12 11 -12 -6z"/>
<path d="M4155 1880 c-3 -5 -1 -10 4 -10 6 0 11 5 11 10 0 6 -2 10 -4 10 -3 0
-8 -4 -11 -10z"/>
<path d="M4210 1882 c0 -5 7 -9 15 -9 8 0 12 4 9 9 -3 4 -9 8 -15 8 -5 0 -9
-4 -9 -8z"/>
<path d="M4275 1880 c-3 -6 1 -7 9 -4 18 7 21 14 7 14 -6 0 -13 -4 -16 -10z"/>
<path d="M4430 1880 c0 -5 5 -10 11 -10 5 0 7 5 4 10 -3 6 -8 10 -11 10 -2 0
-4 -4 -4 -10z"/>
<path d="M890 1860 c0 -5 5 -10 11 -10 5 0 7 5 4 10 -3 6 -8 10 -11 10 -2 0
-4 -4 -4 -10z"/>
<path d="M1664 1862 c4 -3 14 -7 22 -8 9 -1 13 0 10 4 -4 3 -14 7 -22 8 -9 1
-13 0 -10 -4z"/>
<path d="M1839 1853 c-13 -16 -12 -17 4 -4 9 7 17 15 17 17 0 8 -8 3 -21 -13z"/>
<path d="M1878 1863 c7 -3 16 -2 19 1 4 3 -2 6 -13 5 -11 0 -14 -3 -6 -6z"/>
<path d="M4280 1860 c-9 -6 -10 -10 -3 -10 6 0 15 5 18 10 8 12 4 12 -15 0z"/>
<path d="M4150 1856 c0 -2 8 -10 18 -17 15 -13 16 -12 3 4 -13 16 -21 21 -21
13z"/>
<path d="M4306 1842 c-2 -4 4 -8 14 -8 10 0 16 4 14 8 -3 4 -9 8 -14 8 -5 0
-11 -4 -14 -8z"/>
<path d="M2935 1829 c-4 -6 -5 -12 -2 -15 2 -3 7 2 10 11 7 17 1 20 -8 4z"/>
<path d="M1670 1820 c0 -5 5 -10 11 -10 5 0 7 5 4 10 -3 6 -8 10 -11 10 -2 0
-4 -4 -4 -10z"/>
<path d="M3520 1820 c-9 -6 -10 -10 -3 -10 6 0 15 5 18 10 8 12 4 12 -15 0z"/>
<path d="M3550 1826 c0 -2 7 -7 16 -10 8 -3 12 -2 9 4 -6 10 -25 14 -25 6z"/>
<path d="M3493 1801 c0 -11 5 -18 9 -15 4 3 5 11 1 19 -7 21 -12 19 -10 -4z"/>
<path d="M3452 1800 c2 -9 -4 -15 -16 -15 -27 0 -29 -33 -3 -46 21 -9 21 -9 4
5 -18 14 -18 15 4 26 18 10 21 10 16 -2 -3 -8 -1 -21 3 -28 5 -9 8 0 7 22 -2
20 -6 40 -11 45 -4 4 -6 1 -4 -7z"/>
<path d="M3815 1750 c-3 -5 -1 -10 4 -10 6 0 11 5 11 10 0 6 -2 10 -4 10 -3 0
-8 -4 -11 -10z"/>
<path d="M890 1739 c0 -5 5 -7 10 -4 6 3 10 8 10 11 0 2 -4 4 -10 4 -5 0 -10
-5 -10 -11z"/>
<path d="M890 1700 c0 -5 5 -10 11 -10 5 0 7 5 4 10 -3 6 -8 10 -11 10 -2 0
-4 -4 -4 -10z"/>
<path d="M2475 1691 c-3 -5 -2 -12 3 -15 5 -3 9 1 9 9 0 17 -3 19 -12 6z"/>
<path d="M3850 1691 c0 -7 -5 -9 -12 -5 -7 5 -8 3 -3 -5 5 -9 10 -10 18 -2 6
6 8 14 4 18 -4 3 -7 1 -7 -6z"/>
<path d="M3873 1655 c0 -8 4 -12 9 -9 5 3 6 10 3 15 -9 13 -12 11 -12 -6z"/>
<path d="M3913 1641 c0 -11 5 -18 9 -15 4 3 5 11 1 19 -7 21 -12 19 -10 -4z"/>
<path d="M4010 1601 c0 -6 4 -12 8 -15 5 -3 9 1 9 9 0 8 -4 15 -9 15 -4 0 -8
-4 -8 -9z"/>
<path d="M3222 1569 c-8 -12 -9 -18 -3 -15 5 4 16 -3 24 -15 15 -21 15 -21 26
-1 8 15 6 23 -8 36 -22 20 -24 20 -39 -5z m42 -21 c-3 -5 -12 -4 -20 3 -7 6
-11 15 -8 21 3 5 12 4 20 -3 7 -6 11 -15 8 -21z"/>
<path d="M2935 1529 c-4 -6 -5 -12 -2 -15 2 -3 7 2 10 11 7 17 1 20 -8 4z"/>
<path d="M3218 1533 c6 -2 12 -9 12 -14 0 -6 -5 -7 -12 -3 -7 5 -8 3 -3 -5 5
-9 11 -9 17 -3 12 12 2 32 -15 31 -9 0 -9 -2 1 -6z"/>
<path d="M4470 1510 c-6 -11 -8 -20 -6 -20 3 0 10 9 16 20 6 11 8 20 6 20 -3
0 -10 -9 -16 -20z"/>
<path d="M3260 1510 c-9 -6 -10 -10 -3 -10 6 0 15 5 18 10 8 12 4 12 -15 0z"/>
<path d="M890 1499 c0 -5 5 -7 10 -4 6 3 10 8 10 11 0 2 -4 4 -10 4 -5 0 -10
-5 -10 -11z"/>
<path d="M3210 1478 c0 -4 4 -8 9 -8 6 0 12 4 15 8 3 5 -1 9 -9 9 -8 0 -15 -4
-15 -9z"/>
<path d="M3773 1475 c0 -8 4 -12 9 -9 5 3 6 10 3 15 -9 13 -12 11 -12 -6z"/>
<path d="M895 1449 c-4 -6 -5 -12 -2 -15 2 -3 7 2 10 11 7 17 1 20 -8 4z"/>
<path d="M1540 1446 c0 -2 8 -10 18 -17 15 -13 16 -12 3 4 -13 16 -21 21 -21
13z"/>
<path d="M4410 1420 c-12 -16 -18 -30 -13 -30 5 0 17 14 26 30 10 17 16 30 13
30 -2 0 -14 -13 -26 -30z"/>
<path d="M1580 1419 c0 -5 5 -7 10 -4 6 3 13 -1 16 -9 3 -9 10 -16 15 -16 5 0
4 9 -3 20 -14 21 -38 27 -38 9z"/>
<path d="M3381 1404 c0 -11 3 -14 6 -6 3 7 2 16 -1 19 -3 4 -6 -2 -5 -13z"/>
<path d="M3420 1403 c0 -6 9 -20 20 -33 11 -12 17 -26 15 -31 -3 -4 -1 -10 4
-14 17 -10 3 34 -18 62 -12 14 -21 21 -21 16z"/>
<path d="M895 1380 c3 -5 8 -10 11 -10 2 0 4 5 4 10 0 6 -5 10 -11 10 -5 0 -7
-4 -4 -10z"/>
<path d="M4381 1364 c0 -11 3 -14 6 -6 3 7 2 16 -1 19 -3 4 -6 -2 -5 -13z"/>
<path d="M4410 1376 c0 -2 8 -10 18 -17 15 -13 16 -12 3 4 -13 16 -21 21 -21
13z"/>
<path d="M1595 1360 c-3 -5 -1 -10 4 -10 6 0 11 5 11 10 0 6 -2 10 -4 10 -3 0
-8 -4 -11 -10z"/>
<path d="M1676 1355 c-9 -26 -7 -32 5 -12 6 10 9 21 6 23 -2 3 -7 -2 -11 -11z"/>
<path d="M1039 1356 c0 -1 -2 -9 -4 -18 -2 -11 2 -15 11 -11 8 3 14 9 14 14 0
4 7 6 15 3 8 -4 15 -2 15 3 0 6 -43 14 -51 9z"/>
<path d="M2635 1350 c-3 -5 -1 -10 4 -10 6 0 11 5 11 10 0 6 -2 10 -4 10 -3 0
-8 -4 -11 -10z"/>
<path d="M2665 1349 c-4 -6 -5 -11 -4 -12 2 -2 13 -9 24 -17 19 -14 19 -14 2
6 -9 11 -14 24 -10 27 3 4 4 7 0 7 -3 0 -9 -5 -12 -11z"/>
<path d="M2710 1349 c0 -5 -6 -7 -12 -3 -7 4 -9 3 -5 -1 13 -15 36 -14 30 1
-6 17 -13 18 -13 3z"/>
<path d="M3026 1349 c3 -6 9 -8 12 -5 3 3 11 1 19 -6 11 -9 18 -7 31 7 13 15
14 16 1 7 -9 -6 -18 -9 -21 -7 -11 11 -49 14 -42 4z"/>
<path d="M3574 1333 c-1 -13 2 -23 8 -23 5 0 6 5 3 10 -3 6 3 10 14 10 12 0
21 4 21 10 0 5 -7 6 -17 3 -10 -4 -14 -2 -10 4 3 5 1 10 -6 10 -7 0 -13 -11
-13 -24z"/>
<path d="M3633 1334 c0 -14 2 -21 6 -17 3 4 9 10 12 13 4 3 1 10 -6 17 -10 9
-12 6 -12 -13z"/>
<path d="M1110 1340 c-9 -6 -10 -10 -3 -10 6 0 15 5 18 10 8 12 4 12 -15 0z"/>
<path d="M1713 1328 c1 -10 2 -18 4 -18 1 0 7 8 12 18 7 14 6 19 -4 19 -7 0
-13 -9 -12 -19z"/>
<path d="M1129 1323 c-13 -16 -12 -17 4 -4 9 7 17 15 17 17 0 8 -8 3 -21 -13z"/>
<path d="M1691 1324 c0 -11 3 -14 6 -6 3 7 2 16 -1 19 -3 4 -6 -2 -5 -13z"/>
<path d="M1745 1331 c-3 -5 -1 -12 5 -16 5 -3 10 -3 10 2 0 4 4 2 8 -5 11 -17
50 -24 58 -10 4 7 2 8 -4 4 -7 -4 -12 -1 -12 6 0 8 9 14 20 15 11 1 18 -2 15
-8 -4 -5 -1 -9 5 -9 7 0 10 6 8 12 -3 7 -22 13 -44 14 -21 1 -33 -1 -26 -3 6
-3 12 -12 12 -21 -1 -14 -4 -13 -19 6 -21 24 -27 27 -36 13z"/>
<path d="M2214 1315 c0 -28 8 -24 13 5 2 11 -1 20 -5 20 -4 0 -8 -11 -8 -25z"/>
<path d="M1074 1321 c4 -5 1 -12 -4 -14 -6 -3 -5 -4 2 -3 15 3 23 26 8 26 -6
0 -9 -4 -6 -9z"/>
<path d="M2036 1318 c3 -5 10 -6 15 -3 13 9 11 12 -6 12 -8 0 -12 -4 -9 -9z"/>
<path d="M2560 1320 c-12 -7 -10 -9 8 -7 12 0 22 5 22 9 0 11 -12 10 -30 -2z"/>
<path d="M2632 1318 c2 -6 10 -13 16 -14 7 -1 8 0 2 3 -5 2 -8 9 -4 14 3 5 0
9 -6 9 -7 0 -10 -5 -8 -12z"/>
<path d="M3028 1323 c7 -3 16 -2 19 1 4 3 -2 6 -13 5 -11 0 -14 -3 -6 -6z"/>
<path d="M3890 1322 c0 -5 7 -9 15 -9 8 0 12 4 9 9 -3 4 -9 8 -15 8 -5 0 -9
-4 -9 -8z"/>
<path d="M997 1309 c7 -7 15 -10 18 -7 3 3 -2 9 -12 12 -14 6 -15 5 -6 -5z"/>
<path d="M3077 1309 c7 -7 15 -10 18 -7 3 3 -2 9 -12 12 -14 6 -15 5 -6 -5z"/>
<path d="M1730 1300 c0 -5 5 -10 11 -10 5 0 7 5 4 10 -3 6 -8 10 -11 10 -2 0
-4 -4 -4 -10z"/>
<path d="M1950 1296 c7 -7 13 -7 20 0 6 6 3 10 -10 10 -13 0 -16 -4 -10 -10z"/>
<path d="M2010 1300 c0 -5 5 -10 11 -10 5 0 7 5 4 10 -3 6 -8 10 -11 10 -2 0
-4 -4 -4 -10z"/>
<path d="M3675 1300 c-3 -5 -1 -10 4 -10 6 0 11 5 11 10 0 6 -2 10 -4 10 -3 0
-8 -4 -11 -10z"/>
<path d="M3880 1280 c-9 -6 -10 -10 -3 -10 6 0 15 5 18 10 8 12 4 12 -15 0z"/>
<path d="M4145 1280 c-3 -6 1 -7 9 -4 18 7 21 14 7 14 -6 0 -13 -4 -16 -10z"/>
<path d="M1915 1271 c-3 -5 -2 -12 3 -15 5 -3 9 1 9 9 0 17 -3 19 -12 6z"/>
<path d="M1815 1261 c-3 -5 -2 -12 3 -15 5 -3 9 1 9 9 0 17 -3 19 -12 6z"/>
</g>
</svg>
